<?xml version="1.0" encoding="UTF-8" standalone="no"?>
<svg
   xmlns:dc="http://purl.org/dc/elements/1.1/"
   xmlns:cc="http://creativecommons.org/ns#"
   xmlns:rdf="http://www.w3.org/1999/02/22-rdf-syntax-ns#"
   xmlns:svg="http://www.w3.org/2000/svg"
   xmlns="http://www.w3.org/2000/svg"
   xmlns:sodipodi="http://sodipodi.sourceforge.net/DTD/sodipodi-0.dtd"
   xmlns:inkscape="http://www.inkscape.org/namespaces/inkscape"
   version="1.1"
   id="svg833"
   xml:space="preserve"
   width="1000"
   height="666.66669"
   viewBox="0 0 1000 666.66669"
   sodipodi:docname="3616324.svg"
   inkscape:version="1.0.2 (e86c8708, 2021-01-15)"><metadata
     id="metadata839"><rdf:RDF><cc:Work
         rdf:about=""><dc:format>image/svg+xml</dc:format><dc:type
           rdf:resource="http://purl.org/dc/dcmitype/StillImage" /><dc:title></dc:title></cc:Work></rdf:RDF></metadata><defs
     id="defs837"><clipPath
       clipPathUnits="userSpaceOnUse"
       id="clipPath1155"><path
         d="M 1661.19,594.379 H 639.484 c -60.859,0 -110.66,49.801 -110.66,110.66 0,60.871 49.801,110.66 110.66,110.66 H 1661.19 c 60.86,0 110.66,-49.789 110.66,-110.66 0,-60.859 -49.8,-110.66 -110.66,-110.66"
         id="path1153" /></clipPath></defs><sodipodi:namedview
     pagecolor="#ffffff"
     bordercolor="#000000"
     borderopacity="0.25"
     objecttolerance="10"
     gridtolerance="10"
     guidetolerance="10"
     inkscape:pageopacity="0"
     inkscape:pageshadow="2"
     inkscape:window-width="1440"
     inkscape:window-height="900"
     id="namedview835"
     showgrid="false"
     inkscape:zoom="0.36580384"
     inkscape:cx="411.60985"
     inkscape:cy="167.6734"
     inkscape:window-x="0"
     inkscape:window-y="59"
     inkscape:window-maximized="0"
     inkscape:current-layer="g841" /><g
     id="g841"
     inkscape:groupmode="layer"
     inkscape:label="ink_ext_XXXXXX"
     transform="matrix(1.3333333,0,0,-1.3333333,0,666.66667)"><path
       d="M 698.633,59.4379 H 586.099 c -5.959,0 -10.835,4.8762 -10.835,10.8351 0,5.9602 4.876,10.836 10.835,10.836 h 112.534 c 5.96,0 10.835,-4.8758 10.835,-10.836 0,-5.9589 -4.875,-10.8351 -10.835,-10.8351"
       style="fill:#e5e5e5;fill-opacity:1;fill-rule:nonzero;stroke:none;stroke-width:0.1"
       id="path847" /><path
       d="M 527.788,59.4379 H 425.617 c -6.086,0 -11.066,4.9801 -11.066,11.066 0,6.0871 4.98,11.066 11.066,11.066 h 102.171 c 6.086,0 11.065,-4.9789 11.065,-11.066 0,-6.0859 -4.979,-11.066 -11.065,-11.066"
       style="fill:#e5e5e5;fill-opacity:1;fill-rule:nonzero;stroke:none;stroke-width:0.1"
       id="path849" /><path
       d="m 634.581,90.8699 0.252,-18.366 c 0.013,-0.941 -0.733,-1.716 -1.672,-1.741 L 587.872,69.6 c -1.556,0 -2.07,2.0898 -0.685,2.7969 5.33,2.7222 14.624,6.9242 26.73,10.2511 l 2.231,8.2219 h 18.433"
       style="fill:#3d5963;fill-opacity:1;fill-rule:nonzero;stroke:none;stroke-width:0.1"
       id="path851" /><path
       d="M 655.345,242.642 636.492,88.5781 h -23.47 l 4.688,154.0639 h 37.635"
       style="fill:#5f8c9c;fill-opacity:1;fill-rule:nonzero;stroke:none;stroke-width:0.1"
       id="path853" /><path
       d="m 646.126,179.826 -12.027,62.816 h 21.246 l -9.219,-62.816"
       style="fill:#5a8594;fill-opacity:1;fill-rule:nonzero;stroke:none;stroke-width:0.1"
       id="path855" /><path
       d="m 685.534,89.6629 4.037,-18.366 c 0.207,-0.9399 -0.379,-1.716 -1.315,-1.7399 l -45.048,-1.1629 c -1.555,0 -2.5,2.0891 -1.261,2.7957 4.769,2.7231 13.197,6.9243 24.617,10.2524 l 0.537,8.2207 h 18.433"
       style="fill:#3d5963;fill-opacity:1;fill-rule:nonzero;stroke:none;stroke-width:0.1"
       id="path857" /><path
       d="M 641.214,242.642 663.826,87.3719 h 23.471 l -6.034,155.2701 h -40.049"
       style="fill:#6fa2b5;fill-opacity:1;fill-rule:nonzero;stroke:none;stroke-width:0.1"
       id="path859" /><path
       d="m 567.287,370.886 -4.115,25.765 14.566,2.326 4.114,-25.765 -14.565,-2.326"
       style="fill:#ffb392;fill-opacity:1;fill-rule:nonzero;stroke:none;stroke-width:0.1"
       id="path861" /><path
       d="m 626.985,330.335 -51.53,-2.297 c -5.006,0.222 -9.116,4.034 -9.713,9.009 l -6.112,53.794 23.87,0.386 4.679,-36.304 35.55,2.628 3.256,-27.216"
       style="fill:#6fa2b5;fill-opacity:1;fill-rule:nonzero;stroke:none;stroke-width:0.1"
       id="path863" /><path
       d="m 586.447,413.135 v 0 c -1.174,0.999 -3.148,0.405 -4.386,-1.321 l -6.79,-9.467 c -1.238,-1.725 -1.29,-3.955 -0.116,-4.954 1.175,-0.999 3.148,-0.405 4.386,1.321 l 6.791,9.467 c 1.238,1.725 1.29,3.955 0.115,4.954"
       style="fill:#ffb392;fill-opacity:1;fill-rule:nonzero;stroke:none;stroke-width:0.1"
       id="path865" /><path
       d="m 554.66,423.195 v 0 c -1.164,-0.387 -1.729,-1.938 -1.255,-3.447 l 6.729,-19.101 c 0.474,-1.51 1.815,-2.429 2.978,-2.043 1.164,0.386 1.728,1.937 1.255,3.446 l -6.73,19.102 c -0.473,1.509 -1.814,2.429 -2.977,2.043"
       style="fill:#ffb392;fill-opacity:1;fill-rule:nonzero;stroke:none;stroke-width:0.1"
       id="path867" /><path
       d="m 560.13,429.161 v 0 c -1.175,-0.272 -1.866,-1.759 -1.535,-3.307 l 4.908,-19.648 c 0.331,-1.547 1.564,-2.591 2.74,-2.319 1.175,0.272 1.866,1.759 1.535,3.306 l -4.908,19.648 c -0.331,1.548 -1.564,2.591 -2.74,2.32"
       style="fill:#ffb392;fill-opacity:1;fill-rule:nonzero;stroke:none;stroke-width:0.1"
       id="path869" /><path
       d="m 567.353,430.802 v 0 c -1.174,-0.158 -1.982,-1.573 -1.796,-3.144 l 3.049,-20.02 c 0.187,-1.572 1.299,-2.728 2.474,-2.57 1.174,0.159 1.982,1.574 1.796,3.145 l -3.049,20.021 c -0.187,1.57 -1.299,2.727 -2.474,2.568"
       style="fill:#ffb392;fill-opacity:1;fill-rule:nonzero;stroke:none;stroke-width:0.1"
       id="path871" /><path
       d="m 575.185,429.817 v 0 c -1.143,-0.027 -2.07,-1.343 -2.059,-2.925 l 0.791,-20.236 c 0.01,-1.581 0.956,-2.854 2.099,-2.828 1.145,0.027 2.072,1.343 2.061,2.925 l -0.791,20.236 c -0.012,1.582 -0.956,2.854 -2.101,2.828"
       style="fill:#ffb392;fill-opacity:1;fill-rule:nonzero;stroke:none;stroke-width:0.1"
       id="path873" /><path
       d="m 572.369,393.333 -2.393,-0.343 c -5.131,-0.736 -9.91,3.215 -10.619,8.78 -0.71,5.564 2.908,10.719 8.04,11.455 l 2.392,0.343 c 5.132,0.736 9.911,-3.214 10.62,-8.779 0.71,-5.565 -2.908,-10.719 -8.04,-11.456"
       style="fill:#ffb392;fill-opacity:1;fill-rule:nonzero;stroke:none;stroke-width:0.1"
       id="path875" /><path
       d="m 685.246,231.28 h -71.539 l 6.332,90.753 3.69,35.518 h 53.458 l 5.654,-34.095 2.405,-92.176"
       style="fill:#7cb6cb;fill-opacity:1;fill-rule:nonzero;stroke:none;stroke-width:0.1"
       id="path877" /><path
       d="m 671.689,357.551 h -44.427 c 0.839,-10.033 10.452,-17.952 22.214,-17.952 11.762,0 21.374,7.919 22.213,17.952"
       style="fill:#6fa2b5;fill-opacity:1;fill-rule:nonzero;stroke:none;stroke-width:0.1"
       id="path879" /><path
       d="m 667.973,357.551 h -36.995 c 0.829,-8.249 8.788,-14.723 18.498,-14.723 9.71,0 17.668,6.474 18.497,14.723"
       style="fill:#ffb392;fill-opacity:1;fill-rule:nonzero;stroke:none;stroke-width:0.1"
       id="path881" /><path
       d="m 658.359,254.65 -36.637,-8.52 c -1.368,-0.319 -2.735,0.533 -3.052,1.901 l -12.741,54.78 c -0.318,1.368 0.534,2.735 1.901,3.052 l 36.636,8.521 c 1.369,0.318 2.736,-0.533 3.053,-1.901 l 12.74,-54.78 c 0.319,-1.368 -0.533,-2.735 -1.9,-3.053"
       style="fill:#3d5963;fill-opacity:1;fill-rule:nonzero;stroke:none;stroke-width:0.1"
       id="path883" /><path
       d="m 662.18,272.748 -29.063,-5.39 -3.047,16.43 29.063,5.39 3.047,-16.43"
       style="fill:#ffb392;fill-opacity:1;fill-rule:nonzero;stroke:none;stroke-width:0.1"
       id="path885" /><path
       d="m 677.187,357.551 v 0 c 12.402,-3.327 18.079,-17.514 18.079,-30.356 l 2.132,-45.984 c -0.097,-5.01 -3.805,-9.213 -8.763,-9.935 l -47.197,-6.605 -0.982,23.852 37.133,6.593 -0.64,30.305 0.238,32.13"
       style="fill:#6fa2b5;fill-opacity:1;fill-rule:nonzero;stroke:none;stroke-width:0.1"
       id="path887" /><path
       d="m 614.339,291.542 v 0 c -1.37,-1.744 -0.956,-4.193 0.92,-5.441 l 10.291,-6.845 c 1.876,-1.248 4.533,-0.842 5.903,0.903 1.37,1.744 0.956,4.193 -0.92,5.44 l -10.291,6.846 c -1.876,1.248 -4.532,0.841 -5.903,-0.903"
       style="fill:#ffb392;fill-opacity:1;fill-rule:nonzero;stroke:none;stroke-width:0.1"
       id="path889" /><path
       d="m 609.646,263.217 v 0 c 0.276,-1.633 1.951,-2.748 3.724,-2.477 l 13.326,2.039 c 1.771,0.271 2.995,1.829 2.719,3.462 -0.276,1.634 -1.951,2.748 -3.724,2.477 l -13.325,-2.039 c -1.773,-0.271 -2.996,-1.829 -2.72,-3.462"
       style="fill:#ffb392;fill-opacity:1;fill-rule:nonzero;stroke:none;stroke-width:0.1"
       id="path891" /><path
       d="m 607.177,268.932 v 0 c 0.277,-1.633 1.953,-2.748 3.724,-2.476 l 13.326,2.038 c 1.772,0.271 2.995,1.829 2.72,3.463 -0.276,1.633 -1.952,2.748 -3.724,2.477 l -13.326,-2.039 c -1.771,-0.271 -2.996,-1.829 -2.72,-3.463"
       style="fill:#ffb392;fill-opacity:1;fill-rule:nonzero;stroke:none;stroke-width:0.1"
       id="path893" /><path
       d="m 605.148,274.715 v 0 c 0.276,-1.633 1.952,-2.748 3.724,-2.477 l 13.326,2.039 c 1.771,0.271 2.996,1.829 2.72,3.462 -0.277,1.634 -1.953,2.748 -3.724,2.477 l -13.326,-2.039 c -1.772,-0.271 -2.995,-1.829 -2.72,-3.462"
       style="fill:#ffb392;fill-opacity:1;fill-rule:nonzero;stroke:none;stroke-width:0.1"
       id="path895" /><path
       d="m 605.17,280.811 v 0 c 0.276,-1.633 1.951,-2.748 3.723,-2.477 l 13.325,2.039 c 1.773,0.271 2.996,1.829 2.72,3.463 -0.275,1.633 -1.951,2.748 -3.724,2.477 l -13.325,-2.039 c -1.772,-0.271 -2.996,-1.829 -2.719,-3.463"
       style="fill:#ffb392;fill-opacity:1;fill-rule:nonzero;stroke:none;stroke-width:0.1"
       id="path897" /><path
       d="m 636.614,277.867 0.456,-2.699 c 0.978,-5.791 -3.36,-11.316 -9.643,-12.277 -6.282,-0.961 -12.222,2.991 -13.202,8.782 l -0.456,2.699 c -0.978,5.791 3.361,11.315 9.643,12.277 6.282,0.961 12.222,-2.991 13.202,-8.782"
       style="fill:#ffb392;fill-opacity:1;fill-rule:nonzero;stroke:none;stroke-width:0.1"
       id="path899" /><path
       d="m 662.424,351.911 h -25.897 l 3.62,38.786 h 18.657 l 3.62,-38.786"
       style="fill:#ffb392;fill-opacity:1;fill-rule:nonzero;stroke:none;stroke-width:0.1"
       id="path901" /><path
       d="m 658.804,390.697 h -18.657 l -2.581,-27.659 c 1.01,-0.218 2.068,-0.384 3.191,-0.48 9.28,-0.788 15.617,3.344 19.785,9.521 l -1.738,18.618"
       style="fill:#db9577;fill-opacity:1;fill-rule:nonzero;stroke:none;stroke-width:0.1"
       id="path903" /><path
       d="m 664.025,394.602 c 0,0 5.31,9.646 11.841,5.01 7.585,-5.385 -5.694,-28.688 -13.442,-18.707 l 1.601,13.697"
       style="fill:#ffb392;fill-opacity:1;fill-rule:nonzero;stroke:none;stroke-width:0.1"
       id="path905" /><path
       d="m 664.025,394.602 -1.601,-13.697 c 0.704,-0.906 1.454,-1.53 2.228,-1.926 3.691,6.178 5.697,14.184 6.548,21.792 -4.216,-0.797 -7.175,-6.169 -7.175,-6.169"
       style="fill:#db9577;fill-opacity:1;fill-rule:nonzero;stroke:none;stroke-width:0.1"
       id="path907" /><path
       d="m 672.361,397.557 c 0.755,0.005 1.511,-0.272 2.142,-0.739 0.641,-0.46 1.13,-1.141 1.419,-1.887 0.263,-0.76 0.319,-1.558 0.224,-2.318 -0.05,-0.377 -0.161,-0.744 -0.257,-1.104 -0.148,-0.349 -0.293,-0.693 -0.477,-1.016 -0.026,0.381 -0.01,0.742 0.002,1.098 l -0.034,1.051 c -0.064,0.684 -0.154,1.343 -0.379,1.951 -0.442,1.214 -1.36,2.203 -2.64,2.964"
       style="fill:#db9577;fill-opacity:1;fill-rule:nonzero;stroke:none;stroke-width:0.1"
       id="path909" /><path
       d="m 675.572,394.426 c -0.409,-0.022 -0.657,-0.185 -0.866,-0.357 -0.205,-0.182 -0.394,-0.396 -0.582,-0.637 l -0.599,-0.773 c -0.218,-0.267 -0.438,-0.547 -0.762,-0.807 -0.114,0.797 0.116,1.544 0.591,2.189 0.263,0.304 0.591,0.601 1.032,0.721 0.423,0.135 0.962,0.028 1.186,-0.336"
       style="fill:#db9577;fill-opacity:1;fill-rule:nonzero;stroke:none;stroke-width:0.1"
       id="path911" /><path
       d="m 670.252,390.606 c 0.628,0.053 1.296,-0.073 1.86,-0.544 0.285,-0.231 0.497,-0.599 0.574,-0.998 0.07,-0.408 -0.034,-0.786 -0.152,-1.123 -0.246,-0.635 -0.853,-1.284 -1.607,-1.382 -0.731,-0.113 -1.392,0.162 -1.85,0.595 0.623,-0.065 1.212,-0.047 1.651,0.145 0.43,0.191 0.714,0.546 0.899,1.016 0.191,0.457 0.202,0.823 -0.069,1.221 -0.278,0.399 -0.778,0.739 -1.306,1.07"
       style="fill:#db9577;fill-opacity:1;fill-rule:nonzero;stroke:none;stroke-width:0.1"
       id="path913" /><path
       d="m 627.31,418.375 c -12.371,-8.345 -2.754,-26.056 -2.754,-26.056 l 2.754,26.056"
       style="fill:#594541;fill-opacity:1;fill-rule:nonzero;stroke:none;stroke-width:0.1"
       id="path915" /><path
       d="m 647.569,426.864 c 10.373,-1.007 21.209,-6.446 20.624,-23.818 -0.585,-17.372 -6.186,-39.697 -25.84,-37.788 -17.008,1.576 -20.411,25.043 -17.642,42.203 2.768,17.159 12.485,20.411 22.858,19.403"
       style="fill:#ffb392;fill-opacity:1;fill-rule:nonzero;stroke:none;stroke-width:0.1"
       id="path917" /><path
       d="m 638.598,396.884 c -0.551,-1.69 -1.128,-3.364 -1.724,-5.024 -0.578,-1.666 -1.191,-3.32 -1.693,-4.99 -0.255,-0.815 -0.515,-1.704 -0.593,-2.458 -0.077,-0.384 0.055,-0.674 0.209,-0.927 0.21,-0.218 0.534,-0.388 0.919,-0.466 0.772,-0.16 1.654,-0.053 2.482,0.139 0.417,0.097 0.84,0.213 1.23,0.396 0.38,0.186 0.805,0.369 1.028,0.761 -0.128,-0.448 -0.535,-0.74 -0.902,-0.989 -0.377,-0.259 -0.79,-0.451 -1.212,-0.627 -0.854,-0.314 -1.762,-0.555 -2.748,-0.437 -0.487,0.056 -1.015,0.23 -1.435,0.645 -0.37,0.439 -0.567,1.047 -0.5,1.547 0.076,1.006 0.335,1.828 0.584,2.703 1.096,3.412 2.567,6.649 4.355,9.727"
       style="fill:#c28469;fill-opacity:1;fill-rule:nonzero;stroke:none;stroke-width:0.1"
       id="path919" /><path
       d="m 635.978,375.696 c 1.498,-0.054 2.978,0.006 4.438,0.111 1.455,0.137 2.908,0.312 4.288,0.726 1.385,0.39 2.699,0.967 3.893,1.758 1.163,0.839 2.127,1.923 2.955,3.185 -0.473,-1.416 -1.297,-2.774 -2.484,-3.79 -1.198,-0.992 -2.626,-1.668 -4.1,-2.098 -1.482,-0.422 -3.015,-0.561 -4.528,-0.544 -1.513,0.022 -3.021,0.223 -4.462,0.652"
       style="fill:#c28469;fill-opacity:1;fill-rule:nonzero;stroke:none;stroke-width:0.1"
       id="path921" /><path
       d="m 652.567,397.465 c -0.104,-1.948 -1.087,-3.478 -2.195,-3.419 -1.108,0.059 -1.92,1.687 -1.816,3.635 0.105,1.948 1.088,3.478 2.196,3.419 1.107,-0.06 1.92,-1.687 1.815,-3.635"
       style="fill:#594541;fill-opacity:1;fill-rule:nonzero;stroke:none;stroke-width:0.1"
       id="path923" /><path
       d="m 631.878,397.576 c -0.099,-1.828 -1.021,-3.264 -2.061,-3.209 -1.039,0.057 -1.802,1.583 -1.704,3.411 0.099,1.829 1.021,3.265 2.06,3.209 1.04,-0.056 1.803,-1.583 1.705,-3.411"
       style="fill:#594541;fill-opacity:1;fill-rule:nonzero;stroke:none;stroke-width:0.1"
       id="path925" /><path
       d="m 648.67,403.223 c 0.509,0.699 1.336,1.049 2.199,1.05 0.984,0 1.954,-0.463 2.448,-1.305 0.138,-0.234 0.439,-0.311 0.673,-0.173 0.233,0.139 0.311,0.44 0.173,0.673 -0.708,1.19 -2.015,1.787 -3.294,1.787 -1.123,0.002 -2.27,-0.463 -2.993,-1.454 -0.16,-0.219 -0.111,-0.526 0.108,-0.686 0.219,-0.16 0.526,-0.111 0.686,0.108"
       style="fill:#594541;fill-opacity:1;fill-rule:nonzero;stroke:none;stroke-width:0.1"
       id="path927" /><path
       d="m 627.659,403.805 c 0.509,0.7 1.337,1.049 2.199,1.05 0.984,0 1.954,-0.463 2.448,-1.305 0.139,-0.234 0.44,-0.311 0.673,-0.173 0.234,0.138 0.311,0.44 0.173,0.673 -0.708,1.19 -2.015,1.788 -3.294,1.788 -1.122,10e-4 -2.269,-0.464 -2.993,-1.455 -0.159,-0.219 -0.111,-0.526 0.108,-0.686 0.219,-0.159 0.526,-0.111 0.686,0.108"
       style="fill:#594541;fill-opacity:1;fill-rule:nonzero;stroke:none;stroke-width:0.1"
       id="path929" /><path
       d="m 665.935,386.861 c 0,0 -9.55,3.23 -7.462,27.634 0,0 -11.017,-4.964 -25.299,-4.718 -13.74,0.236 -16.435,7.048 -13.474,23.423 0,0 2.007,-5.298 18.463,-2.087 16.457,3.21 30.505,-4.255 29.14,-13.086 0,0 10.085,-11.806 -1.368,-31.166"
       style="fill:#594541;fill-opacity:1;fill-rule:nonzero;stroke:none;stroke-width:0.1"
       id="path931" /><path
       d="M 344.542,59.4379 H 232.009 c -5.96,0 -10.836,4.8762 -10.836,10.8351 0,5.9602 4.876,10.836 10.836,10.836 h 112.533 c 5.96,0 10.836,-4.8758 10.836,-10.836 0,-5.9589 -4.876,-10.8351 -10.836,-10.8351"
       style="fill:#e5e5e5;fill-opacity:1;fill-rule:nonzero;stroke:none;stroke-width:0.1"
       id="path933" /><path
       d="m 296.061,90.8699 -0.252,-18.366 c -0.013,-0.941 0.732,-1.716 1.672,-1.741 L 342.77,69.6 c 1.555,0 2.07,2.0898 0.685,2.7969 -5.33,2.7222 -14.624,6.9242 -26.73,10.2511 l -2.231,8.2219 h -18.433"
       style="fill:#3d5963;fill-opacity:1;fill-rule:nonzero;stroke:none;stroke-width:0.1"
       id="path935" /><path
       d="M 275.296,242.642 294.149,88.5781 h 23.471 l -4.688,154.0639 h -37.636"
       style="fill:#5f8c9c;fill-opacity:1;fill-rule:nonzero;stroke:none;stroke-width:0.1"
       id="path937" /><path
       d="m 284.516,179.826 -9.22,62.816 h 21.246 l -12.026,-62.816"
       style="fill:#5a8594;fill-opacity:1;fill-rule:nonzero;stroke:none;stroke-width:0.1"
       id="path939" /><path
       d="m 245.108,89.6629 -4.037,-18.366 c -0.207,-0.9399 0.379,-1.716 1.314,-1.7399 l 45.049,-1.1629 c 1.555,0 2.5,2.0891 1.261,2.7957 -4.769,2.7231 -13.197,6.9243 -24.617,10.2524 l -0.537,8.2207 h -18.433"
       style="fill:#3d5963;fill-opacity:1;fill-rule:nonzero;stroke:none;stroke-width:0.1"
       id="path941" /><path
       d="M 289.427,242.642 266.816,87.3719 h -23.471 l 6.033,155.2701 h 40.049"
       style="fill:#6fa2b5;fill-opacity:1;fill-rule:nonzero;stroke:none;stroke-width:0.1"
       id="path943" /><path
       d="m 348.699,280.027 25.997,2.215 -1.252,14.698 -25.997,-2.216 1.252,-14.697"
       style="fill:#ffb392;fill-opacity:1;fill-rule:nonzero;stroke:none;stroke-width:0.1"
       id="path945" /><path
       d="m 306.913,357.551 -1.767,-79.921 c 1.422,-4.805 6.111,-7.874 11.084,-7.256 l 53.682,7.031 -2.378,22.259 -39.361,-3.206 -6.168,39.884 c -1.74,10.162 -5.17,18.415 -15.092,21.209"
       style="fill:#6fa2b5;fill-opacity:1;fill-rule:nonzero;stroke:none;stroke-width:0.1"
       id="path947" /><path
       d="m 376.995,310.114 v 0 c 1.651,-0.326 2.957,-1.755 2.38,-3.799 l -3.17,-11.212 c -0.578,-2.044 -2.403,-3.45 -4.054,-3.124 -1.652,0.326 -2.531,2.265 -1.954,4.309 l 3.17,11.212 c 0.578,2.044 1.975,2.94 3.628,2.614"
       style="fill:#ffb392;fill-opacity:1;fill-rule:nonzero;stroke:none;stroke-width:0.1"
       id="path949" /><path
       d="m 391.996,282.299 v 0 c 0.025,-1.32 -1.249,-2.444 -2.83,-2.498 l -12.254,0.855 c -1.582,-0.054 -2.896,0.98 -2.92,2.3 -0.025,1.319 1.249,2.443 2.83,2.497 l 12.255,-0.855 c 1.581,0.055 2.894,-0.98 2.919,-2.299"
       style="fill:#ffb392;fill-opacity:1;fill-rule:nonzero;stroke:none;stroke-width:0.1"
       id="path951" /><path
       d="m 393.967,287.048 v 0 c 0.023,-1.315 -1.252,-2.433 -2.834,-2.485 l -10.256,0.041 c -1.581,-0.053 -2.894,0.98 -2.916,2.295 -0.023,1.314 1.253,2.432 2.834,2.484 l 10.255,-0.041 c 1.582,0.053 2.895,-0.98 2.917,-2.294"
       style="fill:#ffb392;fill-opacity:1;fill-rule:nonzero;stroke:none;stroke-width:0.1"
       id="path953" /><path
       d="m 393.954,292.549 v 0 c 0.154,-1.386 -1.004,-2.682 -2.573,-2.882 l -8.855,-0.892 c -1.57,-0.2 -2.98,0.77 -3.135,2.155 -0.154,1.385 1.004,2.682 2.574,2.882 l 8.855,0.892 c 1.569,0.199 2.979,-0.77 3.134,-2.155"
       style="fill:#ffb392;fill-opacity:1;fill-rule:nonzero;stroke:none;stroke-width:0.1"
       id="path955" /><path
       d="m 392.972,297.821 v 0 c 0.282,-1.253 -0.746,-2.582 -2.284,-2.954 l -9.811,-1.139 c -1.538,-0.372 -3.027,0.349 -3.309,1.602 -0.281,1.253 0.746,2.582 2.284,2.954 l 9.812,1.139 c 1.538,0.372 3.026,-0.349 3.308,-1.602"
       style="fill:#ffb392;fill-opacity:1;fill-rule:nonzero;stroke:none;stroke-width:0.1"
       id="path957" /><path
       d="m 369.344,289.61 0.226,-2.249 c 0.486,-4.823 5.442,-8.238 11.014,-7.588 5.572,0.65 9.734,5.127 9.248,9.95 l -0.227,2.249 c -0.485,4.824 -5.307,7.457 -10.879,6.807 -5.572,-0.649 -9.868,-4.346 -9.382,-9.169"
       style="fill:#ffb392;fill-opacity:1;fill-rule:nonzero;stroke:none;stroke-width:0.1"
       id="path959" /><path
       d="m 247.745,241.383 69.19,-10.103 -6.332,90.753 -3.69,35.518 h -53.458 l -5.655,-34.095 -0.055,-82.073"
       style="fill:#7cb6cb;fill-opacity:1;fill-rule:nonzero;stroke:none;stroke-width:0.1"
       id="path961" /><path
       d="m 262.426,357.551 h 37.479 c -0.708,-10.033 -18.739,-28.448 -18.739,-28.448 0,0 -18.032,18.415 -18.74,28.448"
       style="fill:#6fa2b5;fill-opacity:1;fill-rule:nonzero;stroke:none;stroke-width:0.1"
       id="path963" /><path
       d="m 265.561,357.551 h 31.21 c -0.7,-8.249 -15.605,-23.219 -15.605,-23.219 0,0 -14.906,14.97 -15.605,23.219"
       style="fill:#ffb392;fill-opacity:1;fill-rule:nonzero;stroke:none;stroke-width:0.1"
       id="path965" /><path
       d="m 227.973,258.16 14.648,-25.675 14.514,8.281 -14.648,25.675 -14.514,-8.281"
       style="fill:#ffb392;fill-opacity:1;fill-rule:nonzero;stroke:none;stroke-width:0.1"
       id="path967" /><path
       d="m 253.455,357.551 v 0 c -14.046,-2.529 -14.43,-11.823 -20.079,-23.355 -4.67,-9.532 -11.025,-25.509 -14.839,-35.358 -2.893,-7.47 -2.777,-15.805 0.496,-23.116 0.073,-0.163 0.143,-0.317 0.211,-0.46 l 15.953,-38.157 18.849,14.65 -13.074,38.96 12.721,34.706 -0.238,32.13"
       style="fill:#6fa2b5;fill-opacity:1;fill-rule:nonzero;stroke:none;stroke-width:0.1"
       id="path969" /><path
       d="m 275.171,233.489 v 0 c -0.601,-1.94 -2.66,-2.903 -4.576,-2.14 l -14.438,5.83 c -1.915,0.763 -2.992,2.974 -2.392,4.913 0.6,1.94 2.659,2.903 4.575,2.14 l 14.438,-5.83 c 1.916,-0.763 2.993,-2.974 2.393,-4.913"
       style="fill:#ffb392;fill-opacity:1;fill-rule:nonzero;stroke:none;stroke-width:0.1"
       id="path971" /><path
       d="m 252.123,214.211 v 0 c -1.501,-0.702 -3.37,0.043 -4.155,1.654 l -5.902,12.121 c -0.785,1.611 -0.199,3.504 1.302,4.206 1.5,0.702 3.37,-0.043 4.155,-1.654 l 5.901,-12.12 c 0.785,-1.613 0.199,-3.505 -1.301,-4.207"
       style="fill:#ffb392;fill-opacity:1;fill-rule:nonzero;stroke:none;stroke-width:0.1"
       id="path973" /><path
       d="m 258.228,215.431 v 0 c -1.501,-0.702 -3.371,0.042 -4.156,1.655 l -5.901,12.12 c -0.785,1.611 -0.199,3.505 1.301,4.206 1.501,0.702 3.371,-0.042 4.156,-1.654 l 5.901,-12.121 c 0.785,-1.611 0.199,-3.504 -1.301,-4.206"
       style="fill:#ffb392;fill-opacity:1;fill-rule:nonzero;stroke:none;stroke-width:0.1"
       id="path975" /><path
       d="m 264.138,217.05 v 0 c -1.501,-0.701 -3.37,0.043 -4.155,1.655 l -5.902,12.121 c -0.784,1.611 -0.199,3.504 1.302,4.206 1.5,0.701 3.37,-0.043 4.155,-1.654 l 5.901,-12.121 c 0.785,-1.612 0.199,-3.504 -1.301,-4.207"
       style="fill:#ffb392;fill-opacity:1;fill-rule:nonzero;stroke:none;stroke-width:0.1"
       id="path977" /><path
       d="m 269.14,220.535 v 0 c -1.5,-0.701 -3.37,0.043 -4.154,1.654 l -5.902,12.12 c -0.785,1.613 -0.199,3.505 1.301,4.207 1.501,0.701 3.371,-0.043 4.155,-1.654 l 5.902,-12.121 c 0.784,-1.611 0.199,-3.504 -1.302,-4.206"
       style="fill:#ffb392;fill-opacity:1;fill-rule:nonzero;stroke:none;stroke-width:0.1"
       id="path979" /><path
       d="m 248.836,244.724 -2.48,-1.16 c -5.32,-2.487 -7.396,-9.198 -4.614,-14.912 2.782,-5.714 9.411,-8.353 14.731,-5.865 l 2.48,1.16 c 5.32,2.488 7.396,9.198 4.615,14.912 v 0.001 c -2.783,5.714 -9.412,8.353 -14.732,5.864"
       style="fill:#ffb392;fill-opacity:1;fill-rule:nonzero;stroke:none;stroke-width:0.1"
       id="path981" /><path
       d="m 267.754,231.842 c 0,0 -9.492,-9.474 -20.647,-14.209 l 0.978,-8.274 c 0,0 26.785,-2.01 29.886,15.063 1.459,6.666 -10.217,7.42 -10.217,7.42"
       style="fill:#6fa2b5;fill-opacity:1;fill-rule:nonzero;stroke:none;stroke-width:0.1"
       id="path983" /><path
       d="m 300.801,339.612 v 6.96 c 0.001,2.872 -0.592,5.357 -1.698,7.438 -1.657,3.13 -4.441,5.276 -7.778,6.596 -3.345,1.325 -7.268,1.873 -11.433,1.875 -5.55,-0.006 -10.685,-0.968 -14.565,-3.476 -1.935,-1.254 -3.544,-2.913 -4.647,-4.995 -1.106,-2.081 -1.698,-4.566 -1.697,-7.438 v -31.098 c 0,-0.69 0.56,-1.25 1.251,-1.25 0.69,0 1.25,0.56 1.25,1.25 v 31.098 c 0.001,2.535 0.515,4.585 1.405,6.266 1.338,2.513 3.553,4.27 6.493,5.443 2.933,1.167 6.566,1.7 10.51,1.699 5.262,0.005 9.956,-0.955 13.202,-3.073 1.628,-1.059 2.907,-2.389 3.8,-4.069 0.891,-1.681 1.404,-3.731 1.405,-6.266 v -6.96 c 0,-0.691 0.56,-1.251 1.251,-1.251 0.691,0 1.251,0.56 1.251,1.251"
       style="fill:#e7e9ec;fill-opacity:1;fill-rule:nonzero;stroke:none;stroke-width:0.1"
       id="path985" /><path
       d="m 315.033,304.383 v 15.995 c -0.002,5.231 -1.691,10 -4.46,13.499 -2.763,3.494 -6.658,5.735 -10.986,5.735 -4.329,0 -8.224,-2.241 -10.987,-5.735 -2.77,-3.499 -4.459,-8.268 -4.46,-13.499 v -15.995 c 0,-0.552 0.447,-1 1,-1 0.552,0 1,0.448 1,1 v 15.995 c -0.002,4.798 1.56,9.146 4.027,12.257 2.474,3.116 5.803,4.977 9.42,4.977 3.616,0 6.944,-1.861 9.418,-4.977 2.468,-3.111 4.029,-7.459 4.028,-12.257 v -15.995 c 0,-0.552 0.448,-1 1,-1 0.552,0 1,0.448 1,1"
       style="fill:#e7e9ec;fill-opacity:1;fill-rule:nonzero;stroke:none;stroke-width:0.1"
       id="path987" /><path
       d="m 310.08,309.154 h 0.829 c 0.898,0 1.634,-0.735 1.634,-1.634 v -3.138 c 0,-0.898 -0.736,-1.634 -1.634,-1.634 h -0.829 c -0.899,0 -1.635,0.736 -1.635,1.634 v 3.138 c 0,0.899 0.736,1.634 1.635,1.634"
       style="fill:#618e9e;fill-opacity:1;fill-rule:nonzero;stroke:none;stroke-width:0.1"
       id="path989" /><path
       d="m 313.362,311.257 h 0.312 c 1.268,0 2.305,-1.038 2.305,-2.305 v -6.002 c 0,-1.267 -1.037,-2.305 -2.305,-2.305 h -0.312 c -1.268,0 -2.305,1.038 -2.305,2.305 v 6.002 c 0,1.267 1.037,2.305 2.305,2.305"
       style="fill:#e7e9ec;fill-opacity:1;fill-rule:nonzero;stroke:none;stroke-width:0.1"
       id="path991" /><path
       d="m 288.585,309.154 h -0.624 c -0.86,0 -1.564,-0.704 -1.564,-1.564 v -3.278 c 0,-0.86 0.704,-1.564 1.564,-1.564 h 0.624 c 0.859,0 1.563,0.704 1.563,1.564 v 3.278 c 0,0.86 -0.704,1.564 -1.563,1.564"
       style="fill:#618e9e;fill-opacity:1;fill-rule:nonzero;stroke:none;stroke-width:0.1"
       id="path993" /><path
       d="m 285.577,311.257 h -0.311 c -1.268,0 -2.305,-1.038 -2.305,-2.305 v -6.002 c 0,-1.267 1.037,-2.305 2.305,-2.305 h 0.311 c 1.268,0 2.305,1.038 2.305,2.305 v 6.002 c 0,1.267 -1.037,2.305 -2.305,2.305"
       style="fill:#e7e9ec;fill-opacity:1;fill-rule:nonzero;stroke:none;stroke-width:0.1"
       id="path995" /><path
       d="m 256.079,315.474 c 0,-2.294 1.861,-4.154 4.155,-4.154 2.294,0 4.154,1.86 4.154,4.154 0,2.295 -1.86,4.155 -4.154,4.155 -2.294,0 -4.155,-1.86 -4.155,-4.155"
       style="fill:#ffffff;fill-opacity:1;fill-rule:nonzero;stroke:none;stroke-width:0.1"
       id="path997" /><path
       d="m 258.025,315.474 c 0,-1.219 0.989,-2.208 2.209,-2.208 1.219,0 2.209,0.989 2.209,2.208 0,1.22 -0.99,2.209 -2.209,2.209 -1.22,0 -2.209,-0.989 -2.209,-2.209"
       style="fill:#618e9e;fill-opacity:1;fill-rule:nonzero;stroke:none;stroke-width:0.1"
       id="path999" /><path
       d="m 268.217,351.911 h 25.897 l -3.62,38.786 h -18.656 l -3.621,-38.786"
       style="fill:#ffb392;fill-opacity:1;fill-rule:nonzero;stroke:none;stroke-width:0.1"
       id="path1001" /><path
       d="m 271.838,390.697 h 18.656 l 2.582,-27.659 c -1.01,-0.218 -2.069,-0.384 -3.192,-0.48 -9.279,-0.788 -15.616,3.344 -19.784,9.521 l 1.738,18.618"
       style="fill:#db9577;fill-opacity:1;fill-rule:nonzero;stroke:none;stroke-width:0.1"
       id="path1003" /><path
       d="m 267.219,396.172 c 0,0 -4.764,8.786 -11.557,4.528 -7.889,-4.946 4.072,-26.171 12.384,-17.028 l -0.827,12.5"
       style="fill:#ffb392;fill-opacity:1;fill-rule:nonzero;stroke:none;stroke-width:0.1"
       id="path1005" /><path
       d="m 267.219,396.172 0.827,-12.5 c -0.755,-0.83 -1.54,-1.403 -2.337,-1.767 -3.342,5.627 -4.896,12.928 -5.316,19.872 4.171,-0.713 6.826,-5.605 6.826,-5.605"
       style="fill:#db9577;fill-opacity:1;fill-rule:nonzero;stroke:none;stroke-width:0.1"
       id="path1007" /><path
       d="m 259.05,398.837 c -1.218,-0.721 -2.216,-1.545 -2.75,-2.649 -0.267,-0.545 -0.453,-1.139 -0.541,-1.781 -0.062,-0.318 -0.057,-0.65 -0.105,-0.987 -0.014,-0.338 -0.009,-0.681 -0.053,-1.044 -0.168,0.313 -0.303,0.645 -0.425,0.986 -0.068,0.351 -0.181,0.706 -0.183,1.075 -0.066,0.737 0.107,1.503 0.432,2.195 0.696,1.396 2.199,2.248 3.625,2.205"
       style="fill:#db9577;fill-opacity:1;fill-rule:nonzero;stroke:none;stroke-width:0.1"
       id="path1009" /><path
       d="m 255.663,395.966 c 0.216,0.333 0.691,0.471 1.104,0.376 0.425,-0.083 0.774,-0.347 1.025,-0.636 0.482,-0.606 0.679,-1.329 0.533,-2.079 -0.308,0.246 -0.517,0.505 -0.721,0.752 l -0.562,0.694 c -0.172,0.222 -0.352,0.392 -0.546,0.556 -0.201,0.154 -0.448,0.285 -0.833,0.337"
       style="fill:#db9577;fill-opacity:1;fill-rule:nonzero;stroke:none;stroke-width:0.1"
       id="path1011" /><path
       d="m 260.766,392.499 c -0.518,-0.316 -1.012,-0.627 -1.33,-0.991 -0.324,-0.375 -0.345,-0.682 -0.181,-1.098 0.163,-0.436 0.431,-0.74 0.866,-0.91 0.446,-0.162 1.017,-0.181 1.625,-0.148 -0.459,-0.408 -1.08,-0.663 -1.782,-0.602 -0.725,0.04 -1.395,0.652 -1.624,1.304 -0.121,0.337 -0.186,0.744 -0.079,1.143 0.126,0.396 0.389,0.705 0.679,0.893 0.579,0.383 1.215,0.481 1.826,0.409"
       style="fill:#db9577;fill-opacity:1;fill-rule:nonzero;stroke:none;stroke-width:0.1"
       id="path1013" /><path
       d="m 302.074,396.181 c 0,0 3.249,8.792 10.771,4.531 8.735,-4.949 0.435,-26.188 -9.444,-17.038 l -1.327,12.507"
       style="fill:#ffb392;fill-opacity:1;fill-rule:nonzero;stroke:none;stroke-width:0.1"
       id="path1015" /><path
       d="m 302.074,396.181 1.326,-12.507 c 0.897,-0.831 1.78,-1.404 2.639,-1.769 2.372,5.631 2.667,12.937 1.893,19.885 -4.047,-0.712 -5.858,-5.609 -5.858,-5.609"
       style="fill:#db9577;fill-opacity:1;fill-rule:nonzero;stroke:none;stroke-width:0.1"
       id="path1017" /><path
       d="m 309.779,398.849 c 0.754,0.029 1.506,-0.184 2.189,-0.534 0.688,-0.349 1.292,-0.883 1.751,-1.525 0.438,-0.651 0.769,-1.394 0.839,-2.167 0.116,-0.764 0.011,-1.533 -0.219,-2.24 -0.179,0.735 -0.292,1.425 -0.528,2.068 -0.203,0.65 -0.519,1.237 -0.893,1.772 -0.745,1.09 -1.849,1.898 -3.139,2.626"
       style="fill:#db9577;fill-opacity:1;fill-rule:nonzero;stroke:none;stroke-width:0.1"
       id="path1019" /><path
       d="m 313.658,395.976 c -0.369,-0.061 -0.618,-0.186 -0.796,-0.32 -0.167,-0.151 -0.31,-0.298 -0.439,-0.518 -0.146,-0.202 -0.277,-0.444 -0.439,-0.697 -0.16,-0.256 -0.321,-0.529 -0.583,-0.806 -0.268,0.684 -0.204,1.409 0.212,2.058 0.209,0.312 0.564,0.608 0.99,0.681 0.421,0.074 0.847,-0.08 1.055,-0.398"
       style="fill:#db9577;fill-opacity:1;fill-rule:nonzero;stroke:none;stroke-width:0.1"
       id="path1021" /><path
       d="m 309.155,392.506 c 0.621,0.08 1.255,-0.023 1.85,-0.337 0.302,-0.148 0.577,-0.403 0.788,-0.73 0.211,-0.33 0.283,-0.768 0.225,-1.14 -0.053,-0.378 -0.2,-0.726 -0.466,-1.037 -0.273,-0.297 -0.665,-0.491 -1.026,-0.51 -0.721,-0.058 -1.331,0.208 -1.809,0.605 0.615,-0.021 1.206,-0.015 1.652,0.145 0.431,0.163 0.612,0.483 0.677,0.929 0.088,0.4 -0.101,0.746 -0.477,1.111 -0.383,0.347 -0.882,0.65 -1.414,0.964"
       style="fill:#db9577;fill-opacity:1;fill-rule:nonzero;stroke:none;stroke-width:0.1"
       id="path1023" /><path
       d="m 283.073,426.864 c -10.373,-1.007 -21.209,-6.446 -20.624,-23.818 0.585,-17.372 6.185,-39.697 25.84,-37.788 17.007,1.576 20.411,25.043 17.642,42.203 -2.769,17.159 -12.485,20.411 -22.858,19.403"
       style="fill:#ffb392;fill-opacity:1;fill-rule:nonzero;stroke:none;stroke-width:0.1"
       id="path1025" /><path
       d="m 305.194,396.908 c 0.655,-2.655 -3.244,-11.673 -7.179,-13.613 0,0 -11.8,3.567 -20.569,2.092 0,0 -12.074,2.155 -12.627,14.806 l -3.37,-3.285 c 0,0 0.349,-33.547 22.576,-33.547 22.228,0 23.421,22.095 23.789,33.547 h -2.62"
       style="fill:#594541;fill-opacity:1;fill-rule:nonzero;stroke:none;stroke-width:0.1"
       id="path1027" /><path
       d="m 295.388,380.382 c -0.487,0 -12.636,0 -17.939,3.739 0,0 -0.368,-8.452 7.161,-9.753 7.528,-1.3 10.778,6.014 10.778,6.014"
       style="fill:#ffffff;fill-opacity:1;fill-rule:nonzero;stroke:none;stroke-width:0.1"
       id="path1029" /><path
       d="m 291.114,395.199 1.438,-4.597 c 0.496,-1.512 1.01,-3.018 1.667,-4.43 l 0.24,-0.517 -0.52,-0.164 c -0.773,-0.244 -1.511,-0.398 -2.287,-0.473 -0.768,-0.072 -1.545,-0.077 -2.313,0.024 -0.77,0.082 -1.522,0.311 -2.226,0.612 -0.703,0.315 -1.336,0.761 -1.877,1.277 0.671,-0.342 1.32,-0.678 2.036,-0.832 0.7,-0.175 1.41,-0.285 2.127,-0.297 0.715,-0.009 1.431,0.029 2.139,0.14 0.698,0.113 1.425,0.259 2.064,0.483 l -0.28,-0.681 c -0.705,1.502 -1.178,3.067 -1.537,4.649 -0.179,0.791 -0.321,1.588 -0.441,2.388 -0.092,0.806 -0.207,1.606 -0.23,2.418"
       style="fill:#c28469;fill-opacity:1;fill-rule:nonzero;stroke:none;stroke-width:0.1"
       id="path1031" /><path
       d="m 273.797,397.465 c 0.105,-1.948 1.087,-3.478 2.195,-3.419 1.107,0.059 1.92,1.687 1.816,3.635 -0.105,1.948 -1.088,3.478 -2.196,3.419 -1.107,-0.06 -1.92,-1.687 -1.815,-3.635"
       style="fill:#594541;fill-opacity:1;fill-rule:nonzero;stroke:none;stroke-width:0.1"
       id="path1033" /><path
       d="m 294.486,397.576 c 0.099,-1.828 1.021,-3.264 2.061,-3.209 1.039,0.057 1.802,1.583 1.704,3.411 -0.099,1.829 -1.021,3.265 -2.061,3.209 -1.039,-0.056 -1.802,-1.583 -1.704,-3.411"
       style="fill:#594541;fill-opacity:1;fill-rule:nonzero;stroke:none;stroke-width:0.1"
       id="path1035" /><path
       d="m 278.739,403.801 c -0.724,0.991 -1.871,1.456 -2.993,1.454 -1.279,0 -2.586,-0.597 -3.294,-1.787 -0.138,-0.234 -0.06,-0.534 0.173,-0.673 0.234,-0.138 0.535,-0.061 0.673,0.173 0.494,0.842 1.464,1.305 2.448,1.305 0.862,-0.001 1.69,-0.351 2.199,-1.05 0.16,-0.219 0.467,-0.268 0.686,-0.108 0.219,0.16 0.267,0.467 0.108,0.686"
       style="fill:#594541;fill-opacity:1;fill-rule:nonzero;stroke:none;stroke-width:0.1"
       id="path1037" /><path
       d="m 299.749,404.383 c -0.723,0.991 -1.87,1.456 -2.992,1.455 -1.28,0 -2.586,-0.598 -3.294,-1.788 -0.138,-0.233 -0.061,-0.535 0.173,-0.673 0.233,-0.138 0.534,-0.06 0.673,0.173 0.494,0.842 1.464,1.305 2.448,1.305 0.862,-0.001 1.689,-0.35 2.199,-1.05 0.16,-0.219 0.467,-0.267 0.686,-0.108 0.219,0.16 0.267,0.467 0.107,0.686"
       style="fill:#594541;fill-opacity:1;fill-rule:nonzero;stroke:none;stroke-width:0.1"
       id="path1039" /><path
       d="m 301.646,414.679 c 1.545,-4.877 3.717,-23.73 5.078,-21.044 0.367,0.726 4.537,9.89 -1.53,23.187 l -3.548,-2.143"
       style="fill:#594541;fill-opacity:1;fill-rule:nonzero;stroke:none;stroke-width:0.1"
       id="path1041" /><path
       d="m 267.627,414.634 c -1.544,-4.877 -3.717,-23.73 -5.078,-21.043 -0.368,0.725 -4.537,9.889 1.53,23.186 l 3.548,-2.143"
       style="fill:#594541;fill-opacity:1;fill-rule:nonzero;stroke:none;stroke-width:0.1"
       id="path1043" /><path
       d="m 308.113,429.818 c -24.66,6.036 -46.947,0 -46.947,0 -1.389,-8.918 0,-22.585 0,-22.585 23.642,4.258 46.947,0 46.947,0 0,0 1.021,15.293 0,22.585"
       style="fill:#7cb6cb;fill-opacity:1;fill-rule:nonzero;stroke:none;stroke-width:0.1"
       id="path1045" /><path
       d="m 469.647,91.5379 2.226,-18.757 c 0.113,-0.9598 -0.565,-1.752 -1.522,-1.7758 l -40.37,-1.1879 c -1.588,0 -2.338,2.134 -0.999,2.8558 5.152,2.7801 16.917,6.977 23.32,10.4692 l 1.399,8.3957 h 15.946"
       style="fill:#3d5963;fill-opacity:1;fill-rule:nonzero;stroke:none;stroke-width:0.1"
       id="path1047" /><path
       d="m 448.325,212.996 2.429,-123.798 h 20.13 l 5.934,123.798 h -28.493"
       style="fill:#5f8c9c;fill-opacity:1;fill-rule:nonzero;stroke:none;stroke-width:0.1"
       id="path1049" /><path
       d="m 485.74,91.5379 -2.227,-18.757 c -0.113,-0.9598 0.565,-1.752 1.523,-1.7758 l 40.369,-1.1879 c 1.588,0 2.338,2.134 0.999,2.8558 -5.152,2.7801 -16.917,6.977 -23.32,10.4692 l -1.398,8.3957 H 485.74"
       style="fill:#3d5963;fill-opacity:1;fill-rule:nonzero;stroke:none;stroke-width:0.1"
       id="path1051" /><path
       d="m 478.568,212.996 5.934,-123.798 h 20.13 l 2.429,123.798 h -28.493"
       style="fill:#5f8c9c;fill-opacity:1;fill-rule:nonzero;stroke:none;stroke-width:0.1"
       id="path1053" /><path
       d="m 440.453,285.014 7.785,25.461 7.128,32.032 c -13.107,-0.469 -20.013,-11.79 -25.91,-27.027 -3.855,-9.958 -12.757,-41.314 -12.757,-41.314 -0.059,-0.278 -0.106,-0.556 -0.141,-0.834 -0.331,-2.598 0.46,-5.02 1.949,-6.897 l 21.946,18.579"
       style="fill:#e7e9ec;fill-opacity:1;fill-rule:nonzero;stroke:none;stroke-width:0.1"
       id="path1055" /><path
       d="m 510.347,286.806 -7.544,23.669 -7.127,32.032 c 13.107,-0.469 21.21,-15.197 26.871,-27.027 6.527,-13.645 12.567,-33.098 12.567,-33.098 0.393,-1.875 0.258,-3.755 -0.317,-5.469 l -24.45,9.893"
       style="fill:#e7e9ec;fill-opacity:1;fill-rule:nonzero;stroke:none;stroke-width:0.1"
       id="path1057" /><path
       d="m 495.676,342.507 v 0 l 12.129,-26.043 c 0,0 4.002,-9.865 -1.661,-26.755 -2.036,-6.074 0.13,-26.226 2.044,-50.486 2.227,-28.202 4.751,-56.837 6.721,-85.588 0,0 -16.747,-0.96 -38.206,6.37 h -0.087 c -21.459,-7.33 -37.247,-3.491 -37.247,-3.491 1.699,29.773 4.07,60.486 6.12,85.871 1.801,22.301 4.502,40.114 1.684,48.284 -4.957,14.377 0.259,27.714 0.259,27.714 l 7.725,23.857 1.229,0.386 c 12.795,4.018 26.52,3.976 39.29,-0.119"
       style="fill:#e7e9ec;fill-opacity:1;fill-rule:nonzero;stroke:none;stroke-width:0.1"
       id="path1059" /><path
       d="m 476.94,345.589 c -0.158,0.002 -0.317,0.009 -0.475,0.01 -0.121,-28.165 -0.2,-76.969 -0.2,-132.467 0,-18.681 0.01,-36.601 0.026,-53.234 0.109,0.036 0.216,0.069 0.325,0.107 h 0.087 c 0.137,-0.048 0.272,-0.09 0.41,-0.137 0.017,16.641 0.026,34.571 0.026,53.264 0,55.491 -0.08,104.29 -0.199,132.457"
       style="fill:#d7d8db;fill-opacity:1;fill-rule:nonzero;stroke:none;stroke-width:0.1"
       id="path1061" /><path
       d="m 498.145,337.205 -2.469,5.302 c -12.77,4.095 -26.495,4.137 -39.29,0.119 l -1.229,-0.386 -1.177,-3.635 c 2.868,-10.386 9.051,-34.111 22.274,-43.018 h 0.018 c 12.637,8.512 18.844,31.385 21.873,41.618"
       style="fill:#7cb6cb;fill-opacity:1;fill-rule:nonzero;stroke:none;stroke-width:0.1"
       id="path1063" /><path
       d="m 494.775,342.777 c -12.14,3.699 -25.091,3.76 -37.262,0.179 4.04,-7.373 10.886,-12.239 18.678,-12.239 7.73,0 14.53,4.787 18.584,12.06"
       style="fill:#6fa2b5;fill-opacity:1;fill-rule:nonzero;stroke:none;stroke-width:0.1"
       id="path1065" /><path
       d="m 491.952,343.567 c -10.367,2.655 -21.226,2.707 -31.615,0.152 2.924,-5.792 8.913,-9.773 15.844,-9.773 6.871,0 12.819,3.911 15.771,9.621"
       style="fill:#ffb392;fill-opacity:1;fill-rule:nonzero;stroke:none;stroke-width:0.1"
       id="path1067" /><path
       d="m 457.513,342.956 c 0,0 0.299,-24.109 18.741,-47.369 0.148,-0.438 0.096,-30.756 0.096,-30.756 l -6.472,31.756 -12.79,12.248 1.96,12.507 -8.804,5.362 2.605,15.561 4.664,0.691"
       style="fill:#d7d8db;fill-opacity:1;fill-rule:nonzero;stroke:none;stroke-width:0.1"
       id="path1069" /><path
       d="m 494.982,342.956 c 0,0 -0.299,-24.109 -18.74,-47.369 -0.149,-0.438 0.108,-30.756 0.108,-30.756 l 6.268,31.756 13.79,11.248 -2.96,13.507 8.804,5.362 -2.606,15.561 -4.664,0.691"
       style="fill:#d7d8db;fill-opacity:1;fill-rule:nonzero;stroke:none;stroke-width:0.1"
       id="path1071" /><path
       d="m 510.512,230.561 -18.116,-4.754 -1.385,6.626 18.116,4.754 1.385,-6.626"
       style="fill:#d7d8db;fill-opacity:1;fill-rule:nonzero;stroke:none;stroke-width:0.1"
       id="path1073" /><path
       d="m 443.143,230.561 18.115,-4.754 1.385,6.626 -18.115,4.754 -1.385,-6.626"
       style="fill:#d7d8db;fill-opacity:1;fill-rule:nonzero;stroke:none;stroke-width:0.1"
       id="path1075" /><path
       d="m 501.178,391.825 c 0,0 2.711,-12.297 1.245,-42.335 0,0 -16.439,-1.94 -26.51,-1.953 h 0.154 c -10.071,-0.013 -26.516,1.886 -26.516,1.886 -1.543,30.033 1.136,42.337 1.136,42.337 l 50.491,0.065"
       style="fill:#604e75;fill-opacity:1;fill-rule:nonzero;stroke:none;stroke-width:0.1"
       id="path1077" /><path
       d="M 487.488,340.892 H 464.84 l 3.166,36.733 h 16.316 l 3.166,-36.733"
       style="fill:#ffb392;fill-opacity:1;fill-rule:nonzero;stroke:none;stroke-width:0.1"
       id="path1079" /><path
       d="m 486.244,355.328 -1.922,22.297 h -16.316 l -2.234,-25.923 c 8.12,0.124 14.894,1.45 20.472,3.626"
       style="fill:#db9577;fill-opacity:1;fill-rule:nonzero;stroke:none;stroke-width:0.1"
       id="path1081" /><path
       d="m 496.194,386.23 c 0,0 3.061,5.826 9.273,3.878 8.103,-2.54 1.239,-21.456 -8.825,-13.327 l -0.448,9.449"
       style="fill:#ffb392;fill-opacity:1;fill-rule:nonzero;stroke:none;stroke-width:0.1"
       id="path1083" /><path
       d="m 496.194,386.23 0.448,-9.449 c 0.818,-0.659 1.65,-1.106 2.48,-1.375 2.433,4.93 2.781,10.434 2.192,14.953 -3.364,-0.789 -5.12,-4.129 -5.12,-4.129"
       style="fill:#db9577;fill-opacity:1;fill-rule:nonzero;stroke:none;stroke-width:0.1"
       id="path1085" /><path
       d="m 502.855,388.27 c 0.627,0.139 1.286,0.057 1.902,-0.158 0.62,-0.213 1.19,-0.609 1.633,-1.123 0.423,-0.524 0.749,-1.149 0.827,-1.807 0.121,-0.647 0.038,-1.302 -0.169,-1.899 -0.21,0.609 -0.349,1.173 -0.583,1.684 -0.207,0.52 -0.5,0.971 -0.838,1.373 -0.674,0.823 -1.638,1.386 -2.772,1.93"
       style="fill:#db9577;fill-opacity:1;fill-rule:nonzero;stroke:none;stroke-width:0.1"
       id="path1087" /><path
       d="m 506.304,386.304 c -0.324,-0.122 -0.517,-0.273 -0.664,-0.411 -0.137,-0.147 -0.253,-0.288 -0.364,-0.475 -0.129,-0.17 -0.243,-0.379 -0.396,-0.595 -0.148,-0.22 -0.306,-0.455 -0.563,-0.698 -0.155,0.309 -0.206,0.624 -0.183,0.938 0.019,0.316 0.124,0.629 0.315,0.921 0.193,0.28 0.498,0.546 0.877,0.623 0.367,0.082 0.765,-0.018 0.978,-0.303"
       style="fill:#db9577;fill-opacity:1;fill-rule:nonzero;stroke:none;stroke-width:0.1"
       id="path1089" /><path
       d="m 502.285,382.951 c 0.56,0.146 1.157,0.125 1.741,-0.136 0.292,-0.126 0.584,-0.352 0.777,-0.691 0.186,-0.34 0.224,-0.754 0.159,-1.095 -0.08,-0.334 -0.205,-0.668 -0.471,-0.942 -0.26,-0.263 -0.601,-0.443 -0.933,-0.485 -0.659,-0.088 -1.243,0.116 -1.701,0.468 0.569,0.043 1.1,0.11 1.494,0.287 0.376,0.195 0.553,0.454 0.626,0.86 0.072,0.362 -0.004,0.621 -0.36,0.934 -0.345,0.295 -0.824,0.54 -1.332,0.8"
       style="fill:#db9577;fill-opacity:1;fill-rule:nonzero;stroke:none;stroke-width:0.1"
       id="path1091" /><path
       d="m 456.169,386.23 c 0,0 -3.061,5.826 -9.275,3.878 -8.101,-2.54 -1.238,-21.456 8.825,-13.327 l 0.45,9.449"
       style="fill:#ffb392;fill-opacity:1;fill-rule:nonzero;stroke:none;stroke-width:0.1"
       id="path1093" /><path
       d="m 456.169,386.23 -0.45,-9.449 c -0.816,-0.659 -1.649,-1.106 -2.479,-1.375 -2.434,4.93 -2.781,10.434 -2.192,14.953 3.364,-0.789 5.121,-4.129 5.121,-4.129"
       style="fill:#db9577;fill-opacity:1;fill-rule:nonzero;stroke:none;stroke-width:0.1"
       id="path1095" /><path
       d="m 449.507,388.27 c -1.133,-0.544 -2.097,-1.107 -2.772,-1.93 -0.338,-0.402 -0.632,-0.853 -0.838,-1.373 -0.234,-0.511 -0.373,-1.075 -0.584,-1.684 -0.206,0.597 -0.289,1.252 -0.169,1.899 0.078,0.658 0.404,1.283 0.827,1.807 0.444,0.514 1.014,0.91 1.634,1.123 0.616,0.215 1.275,0.297 1.902,0.158"
       style="fill:#db9577;fill-opacity:1;fill-rule:nonzero;stroke:none;stroke-width:0.1"
       id="path1097" /><path
       d="m 446.057,386.304 c 0.214,0.285 0.612,0.385 0.98,0.303 0.378,-0.077 0.682,-0.343 0.876,-0.623 0.19,-0.292 0.296,-0.605 0.314,-0.921 0.024,-0.314 -0.027,-0.629 -0.182,-0.938 -0.257,0.243 -0.414,0.478 -0.563,0.698 -0.153,0.216 -0.267,0.425 -0.395,0.595 -0.112,0.187 -0.227,0.328 -0.366,0.475 -0.145,0.138 -0.339,0.289 -0.664,0.411"
       style="fill:#db9577;fill-opacity:1;fill-rule:nonzero;stroke:none;stroke-width:0.1"
       id="path1099" /><path
       d="m 450.078,382.951 c -0.508,-0.26 -0.988,-0.505 -1.333,-0.8 -0.357,-0.313 -0.433,-0.572 -0.36,-0.934 0.074,-0.406 0.249,-0.665 0.626,-0.86 0.394,-0.177 0.924,-0.244 1.494,-0.287 -0.458,-0.352 -1.041,-0.556 -1.702,-0.468 -0.332,0.042 -0.671,0.222 -0.932,0.485 -0.266,0.274 -0.391,0.608 -0.471,0.942 -0.065,0.341 -0.027,0.755 0.158,1.095 0.195,0.339 0.486,0.565 0.779,0.691 0.583,0.261 1.179,0.282 1.741,0.136"
       style="fill:#db9577;fill-opacity:1;fill-rule:nonzero;stroke:none;stroke-width:0.1"
       id="path1101" /><path
       d="m 500.428,385.994 c 0,-14.203 -10.044,-31.054 -24.247,-31.054 -14.203,0 -24.248,16.851 -24.248,31.054 0,14.203 10.045,27.636 24.248,27.636 14.203,0 24.247,-13.433 24.247,-27.636"
       style="fill:#ffb392;fill-opacity:1;fill-rule:nonzero;stroke:none;stroke-width:0.1"
       id="path1103" /><path
       d="m 467.907,383.692 c 0.039,0.166 0.056,0.337 0.056,0.513 -0.007,0.903 -0.421,1.965 -1.053,2.921 -0.638,0.946 -1.496,1.788 -2.539,2.079 -0.17,0.046 -0.342,0.069 -0.513,0.069 -0.516,10e-4 -0.991,-0.21 -1.388,-0.532 -0.597,-0.486 -1.056,-1.222 -1.384,-2.082 -0.326,-0.861 -0.514,-1.85 -0.514,-2.855 h 0.479 l 0.224,0.424 -2.626,1.384 c -0.234,0.124 -0.525,0.034 -0.648,-0.201 -0.124,-0.234 -0.034,-0.524 0.201,-0.648 l 2.626,-1.384 c 0.149,-0.078 0.327,-0.073 0.471,0.014 0.144,0.087 0.232,0.243 0.232,0.411 -0.001,1.178 0.303,2.36 0.769,3.209 0.231,0.424 0.502,0.763 0.774,0.982 0.274,0.22 0.533,0.318 0.784,0.319 0.085,-10e-4 0.171,-0.012 0.262,-0.036 0.683,-0.176 1.443,-0.855 1.993,-1.686 0.555,-0.822 0.898,-1.795 0.891,-2.388 0,-0.113 -0.012,-0.211 -0.03,-0.288 -0.063,-0.257 0.096,-0.516 0.354,-0.579 0.257,-0.062 0.516,0.097 0.579,0.354"
       style="fill:#594541;fill-opacity:1;fill-rule:nonzero;stroke:none;stroke-width:0.1"
       id="path1105" /><path
       d="m 485.401,383.805 c -0.001,1.279 0.34,2.431 0.859,3.231 0.525,0.806 1.187,1.229 1.857,1.227 0.669,0.002 1.331,-0.421 1.856,-1.227 0.519,-0.8 0.86,-1.952 0.858,-3.231 0,-0.168 0.088,-0.324 0.232,-0.411 0.144,-0.087 0.323,-0.092 0.472,-0.014 l 2.626,1.384 c 0.234,0.124 0.324,0.414 0.201,0.648 -0.124,0.235 -0.414,0.325 -0.648,0.201 l -2.627,-1.384 0.224,-0.424 h 0.48 c -10e-4,1.447 -0.376,2.765 -1.013,3.752 -0.631,0.981 -1.566,1.663 -2.661,1.665 -1.095,-0.002 -2.031,-0.684 -2.662,-1.665 -0.638,-0.987 -1.012,-2.305 -1.013,-3.752 0,-0.265 0.215,-0.48 0.48,-0.48 0.265,0 0.479,0.215 0.479,0.48"
       style="fill:#594541;fill-opacity:1;fill-rule:nonzero;stroke:none;stroke-width:0.1"
       id="path1107" /><path
       d="m 476.181,385.068 c 0.591,-1.857 1.182,-3.68 1.98,-5.376 0.394,-0.846 0.845,-1.66 1.4,-2.355 0.546,-0.7 1.2,-1.284 1.971,-1.569 l 0.706,-0.261 -0.408,-0.547 c -0.402,-0.538 -0.821,-0.9 -1.314,-1.23 -0.489,-0.314 -1.008,-0.574 -1.553,-0.74 -0.548,-0.157 -1.102,-0.272 -1.661,-0.283 -0.555,-0.033 -1.107,0.031 -1.64,0.128 0.541,0.078 1.067,0.165 1.575,0.305 0.509,0.131 0.991,0.324 1.451,0.54 0.452,0.235 0.882,0.497 1.26,0.819 0.369,0.309 0.747,0.692 0.96,1.039 l 0.297,-0.808 c -1.085,0.321 -1.931,1.079 -2.562,1.89 -0.631,0.826 -1.1,1.732 -1.437,2.669 -0.351,0.933 -0.61,1.889 -0.775,2.857 -0.169,0.966 -0.27,1.943 -0.25,2.922"
       style="fill:#c28469;fill-opacity:1;fill-rule:nonzero;stroke:none;stroke-width:0.1"
       id="path1109" /><path
       d="m 466.832,368.802 c 1.434,-1.058 3.032,-1.825 4.671,-2.385 1.641,-0.562 3.359,-0.852 5.08,-0.891 1.717,-0.07 3.424,0.219 5.006,0.876 1.552,0.694 3.016,1.724 4.086,3.154 -0.751,-1.632 -2.139,-2.966 -3.763,-3.83 -0.818,-0.434 -1.704,-0.717 -2.605,-0.929 -0.906,-0.17 -1.833,-0.253 -2.748,-0.229 -1.826,0.058 -3.655,0.415 -5.323,1.152 -1.673,0.706 -3.215,1.744 -4.404,3.082"
       style="fill:#c28469;fill-opacity:1;fill-rule:nonzero;stroke:none;stroke-width:0.1"
       id="path1111" /><path
       d="m 475.749,418.375 c -29.076,0 -25.909,-32.022 -25.909,-32.022 l 0.667,-5.538 3.473,-3.19 -0.409,11.698 c 0.39,0.221 0.815,0.446 1.279,0.672 l 1.319,8.289 1.354,-7.165 c 2.314,0.838 5.268,1.597 8.987,2.098 l 0.93,5.067 0.9,-4.85 c 2.352,0.245 4.974,0.39 7.917,0.39 0.434,0 0.85,-0.008 1.27,-0.015 l 0.988,3.718 0.368,-3.753 c 4.347,-0.153 7.897,-0.679 10.785,-1.402 l 1.116,9.435 1.467,-10.186 c 2.505,-0.84 4.371,-1.82 5.76,-2.758 l -0.393,-11.238 3.473,3.19 0.566,4.424 -0.053,0.099 0.053,-0.099 c 0,0 3.166,33.136 -25.908,33.136"
       style="fill:#604e75;fill-opacity:1;fill-rule:nonzero;stroke:none;stroke-width:0.1"
       id="path1113" /><path
       d="m 498.735,240.114 -38.227,-3.792 c -1.427,-0.142 -2.699,0.901 -2.84,2.328 l -5.67,57.158 c -0.141,1.428 0.901,2.699 2.328,2.841 l 38.227,3.792 c 1.427,0.141 2.699,-0.901 2.84,-2.329 l 5.67,-57.157 c 0.142,-1.428 -0.901,-2.699 -2.328,-2.841"
       style="fill:#604e75;fill-opacity:1;fill-rule:nonzero;stroke:none;stroke-width:0.1"
       id="path1115" /><path
       d="m 505.072,271.107 -27.689,-14.905 -5.252,12.094 27.688,12.025 5.253,-9.214"
       style="fill:#ffb392;fill-opacity:1;fill-rule:nonzero;stroke:none;stroke-width:0.1"
       id="path1117" /><path
       d="m 534.797,276.913 c -0.96,-2.863 -3.144,-5.267 -6.127,-6.427 l -42.39,-15.051 -6.389,20.558 30.456,10.813 24.45,-9.893"
       style="fill:#e7e9ec;fill-opacity:1;fill-rule:nonzero;stroke:none;stroke-width:0.1"
       id="path1119" /><path
       d="m 458.413,279.307 v 0 c -1.113,-1.501 -0.426,-3.725 1.526,-4.942 l 10.71,-6.676 c 1.952,-1.217 4.46,-0.984 5.572,0.517 1.113,1.501 0.426,3.724 -1.526,4.942 l -10.71,6.675 c -1.952,1.217 -4.46,0.985 -5.572,-0.516"
       style="fill:#ffb392;fill-opacity:1;fill-rule:nonzero;stroke:none;stroke-width:0.1"
       id="path1121" /><path
       d="m 454.284,249.148 v 0 c 0.304,-1.457 2.022,-2.367 3.82,-2.022 l 13.522,2.588 c 1.797,0.344 3.021,1.817 2.718,3.273 -0.302,1.457 -2.021,2.367 -3.819,2.023 l -13.522,-2.588 c -1.798,-0.345 -3.022,-1.818 -2.719,-3.274"
       style="fill:#ffb392;fill-opacity:1;fill-rule:nonzero;stroke:none;stroke-width:0.1"
       id="path1123" /><path
       d="m 451.596,254.668 v 0 c 0.28,-1.34 1.98,-2.154 3.778,-1.808 l 13.52,2.595 c 1.798,0.345 3.04,1.724 2.76,3.064 -0.279,1.34 -1.98,2.154 -3.776,1.808 l -13.522,-2.595 c -1.798,-0.345 -3.039,-1.724 -2.76,-3.064"
       style="fill:#ffb392;fill-opacity:1;fill-rule:nonzero;stroke:none;stroke-width:0.1"
       id="path1125" /><path
       d="m 449.289,260.602 v 0 c 0.291,-1.397 2,-2.258 3.799,-1.913 l 13.52,2.592 c 1.798,0.345 3.031,1.769 2.74,3.166 -0.291,1.397 -2,2.257 -3.798,1.913 l -13.521,-2.592 c -1.798,-0.345 -3.03,-1.77 -2.74,-3.166"
       style="fill:#ffb392;fill-opacity:1;fill-rule:nonzero;stroke:none;stroke-width:0.1"
       id="path1127" /><path
       d="m 449.097,266.755 v 0 c 0.285,-1.36 1.988,-2.19 3.785,-1.846 l 13.521,2.595 c 1.798,0.345 3.037,1.74 2.753,3.1 -0.283,1.36 -1.986,2.191 -3.784,1.846 l -13.522,-2.594 c -1.798,-0.346 -3.036,-1.741 -2.753,-3.101"
       style="fill:#ffb392;fill-opacity:1;fill-rule:nonzero;stroke:none;stroke-width:0.1"
       id="path1129" /><path
       d="m 481.187,265.482 0.567,-2.739 c 1.213,-5.874 -3.009,-11.673 -9.385,-12.888 -6.376,-1.214 -12.586,2.598 -13.8,8.472 l -0.566,2.738 c -1.215,5.874 3.008,11.673 9.384,12.888 6.375,1.214 12.586,-2.598 13.8,-8.471"
       style="fill:#ffb392;fill-opacity:1;fill-rule:nonzero;stroke:none;stroke-width:0.1"
       id="path1131" /><path
       d="m 445.97,271.107 30.832,1.101 -1.414,13.109 -24.166,-4.996 -5.252,-9.214"
       style="fill:#ffb392;fill-opacity:1;fill-rule:nonzero;stroke:none;stroke-width:0.1"
       id="path1133" /><path
       d="m 418.507,266.435 c 2.02,-2.547 5.327,-4.092 8.861,-3.72 l 42.081,4.427 -3.663,19.36 -25.333,-1.488 -21.946,-18.579"
       style="fill:#e7e9ec;fill-opacity:1;fill-rule:nonzero;stroke:none;stroke-width:0.1"
       id="path1135" /><path
       d="m 487.425,301.879 v 0 c 1.537,-1.064 1.6,-3.391 0.143,-5.17 l -7.995,-9.764 c -1.458,-1.781 -3.906,-2.367 -5.442,-1.303 -1.537,1.064 -1.601,3.39 -0.144,5.17 l 7.995,9.765 c 1.458,1.78 3.907,2.366 5.443,1.302"
       style="fill:#ffb392;fill-opacity:1;fill-rule:nonzero;stroke:none;stroke-width:0.1"
       id="path1137" /><path
       d="m 501.03,274.648 v 0 c 0.182,-1.476 -1.154,-2.891 -2.967,-3.143 l -13.637,-1.896 c -1.813,-0.252 -3.445,0.75 -3.627,2.226 -0.18,1.477 1.155,2.891 2.967,3.143 l 13.637,1.896 c 1.813,0.252 3.445,-0.75 3.627,-2.226"
       style="fill:#ffb392;fill-opacity:1;fill-rule:nonzero;stroke:none;stroke-width:0.1"
       id="path1139" /><path
       d="m 501.8,280.739 v 0 c 0.166,-1.358 -1.182,-2.675 -2.995,-2.926 l -13.637,-1.889 c -1.814,-0.251 -3.433,0.655 -3.599,2.014 -0.166,1.358 1.182,2.675 2.995,2.926 l 13.638,1.889 c 1.813,0.252 3.432,-0.655 3.598,-2.014"
       style="fill:#ffb392;fill-opacity:1;fill-rule:nonzero;stroke:none;stroke-width:0.1"
       id="path1141" /><path
       d="m 502.078,287.1 v 0 c 0.173,-1.416 -1.169,-2.78 -2.982,-3.032 l -13.637,-1.893 c -1.813,-0.251 -3.439,0.702 -3.612,2.118 -0.174,1.416 1.168,2.78 2.982,3.032 l 13.636,1.892 c 1.813,0.251 3.439,-0.701 3.613,-2.117"
       style="fill:#ffb392;fill-opacity:1;fill-rule:nonzero;stroke:none;stroke-width:0.1"
       id="path1143" /><path
       d="m 500.281,292.988 v 0 c 0.168,-1.379 -1.178,-2.713 -2.99,-2.964 l -13.638,-1.89 c -1.813,-0.252 -3.435,0.671 -3.604,2.05 -0.167,1.38 1.177,2.714 2.991,2.965 l 13.637,1.89 c 1.814,0.251 3.435,-0.672 3.604,-2.051"
       style="fill:#ffb392;fill-opacity:1;fill-rule:nonzero;stroke:none;stroke-width:0.1"
       id="path1145" /><path
       d="m 470.303,281.466 0.345,-2.775 c 0.738,-5.953 6.602,-10.086 13.029,-9.187 6.428,0.9 11.083,6.506 10.345,12.459 l -0.345,2.774 c -0.738,5.953 -6.601,10.087 -13.029,9.187 -6.428,-0.899 -11.083,-6.505 -10.345,-12.458"
       style="fill:#ffb392;fill-opacity:1;fill-rule:nonzero;stroke:none;stroke-width:0.1"
       id="path1147" /><g
       id="g1149"
       transform="scale(0.1)"><g
         id="g1151"
         clip-path="url(#clipPath1155)"><path
           d="m 528.824,594.379 h 1243.03 v 221.32 H 528.824 Z"
           style="fill:#e5e5e5;fill-opacity:1;fill-rule:nonzero;stroke:none"
           id="path1157" /></g></g><path
       d="m 141.509,358.532 c 0.734,1.214 1.164,2.634 1.164,4.156 0,2.771 -1.399,5.215 -3.528,6.665 0.979,1.335 1.565,2.976 1.565,4.759 0,1.628 -0.487,3.141 -1.317,4.408 1.198,1.406 1.925,3.226 1.925,5.218 0,2.082 -0.796,3.974 -2.092,5.404 0.343,0.896 0.54,1.865 0.54,2.882 0,2.794 -1.423,5.255 -3.583,6.701 1.111,1.381 1.779,3.134 1.779,5.044 0,4.451 -3.609,8.06 -8.06,8.06 -4.451,0 -8.06,-3.609 -8.06,-8.06 0,-2.795 1.423,-5.256 3.583,-6.701 -1.11,-1.381 -1.778,-3.134 -1.778,-5.044 l 0.003,-0.059 c -0.698,-0.082 -1.366,-0.257 -1.998,-0.505 0.014,0.187 0.028,0.374 0.028,0.564 0,2.794 -1.424,5.255 -3.583,6.701 1.11,1.381 1.779,3.134 1.779,5.044 0,4.451 -3.609,8.06 -8.06,8.06 -4.452,0 -8.06,-3.609 -8.06,-8.06 0,-2.795 1.423,-5.256 3.583,-6.701 -1.111,-1.381 -1.779,-3.134 -1.779,-5.044 l 0.004,-0.059 c -4.008,-0.467 -7.1191,-3.869 -7.1191,-8 0,-0.841 0.1293,-1.651 0.3684,-2.412 -0.1453,-0.061 -0.2781,-0.143 -0.4188,-0.212 -0.1398,0.069 -0.2726,0.151 -0.4179,0.212 0.239,0.761 0.3679,1.571 0.3679,2.412 0,4.131 -3.1109,7.532 -7.1183,8 l 0.0035,0.059 c 0,1.91 -0.668,3.663 -1.7789,5.044 2.1597,1.446 3.5832,3.906 3.5832,6.701 0,4.451 -3.6086,8.06 -8.0602,8.06 -4.4511,0 -8.0597,-3.609 -8.0597,-8.06 0,-1.91 0.6679,-3.663 1.7789,-5.044 -2.1598,-1.446 -3.5828,-3.907 -3.5828,-6.701 0,-1.017 0.1961,-1.986 0.5398,-2.882 -1.2953,-1.43 -2.0918,-3.322 -2.0918,-5.404 0,-1.992 0.7266,-3.812 1.9242,-5.218 -0.8301,-1.267 -1.3168,-2.78 -1.3168,-4.408 0,-1.783 0.586,-3.425 1.566,-4.759 -2.1293,-1.451 -3.5285,-3.894 -3.5285,-6.665 0,-1.522 0.4297,-2.941 1.1641,-4.156 -1.8008,-1.478 -2.9496,-3.721 -2.9496,-6.232 0,-4.451 3.6086,-8.06 8.0597,-8.06 2.3559,0 4.4688,1.018 5.9422,2.629 1.2711,-0.837 2.7903,-1.327 4.4254,-1.327 0.7856,0 1.5422,0.118 2.2602,0.327 1.466,-1.521 3.5199,-2.471 5.7992,-2.471 0.5098,0 1.007,0.052 1.4902,0.143 0.484,-0.091 0.9805,-0.143 1.4903,-0.143 2.2802,0 4.3342,0.95 5.8002,2.471 0.717,-0.209 1.474,-0.327 2.26,-0.327 1.34,0 2.595,0.343 3.707,0.924 1.476,-1.867 3.755,-3.068 6.319,-3.068 2.28,0 4.334,0.95 5.8,2.471 0.718,-0.209 1.475,-0.327 2.26,-0.327 1.635,0 3.155,0.49 4.425,1.327 1.474,-1.611 3.587,-2.629 5.943,-2.629 4.451,0 8.06,3.609 8.06,8.06 0,2.511 -1.15,4.753 -2.95,6.232"
       style="fill:#c76151;fill-opacity:1;fill-rule:nonzero;stroke:none;stroke-width:0.1"
       id="path1159" /><path
       d="m 123.659,351.457 h -23.53 l 3.289,38.164 h 16.952 l 3.289,-38.164"
       style="fill:#ffb392;fill-opacity:1;fill-rule:nonzero;stroke:none;stroke-width:0.1"
       id="path1161" /><path
       d="m 122.366,366.455 -1.996,23.166 h -16.952 l -2.322,-26.933 c 8.437,0.129 15.475,1.506 21.27,3.767"
       style="fill:#db9577;fill-opacity:1;fill-rule:nonzero;stroke:none;stroke-width:0.1"
       id="path1163" /><path
       d="m 92.7004,400.181 c 0,0 -4.1754,7.948 -12.652,5.29 -11.0527,-3.464 -1.689,-29.269 12.0395,-18.179 l 0.6125,12.889"
       style="fill:#ffb392;fill-opacity:1;fill-rule:nonzero;stroke:none;stroke-width:0.1"
       id="path1165" /><path
       d="m 92.7004,400.181 -0.6125,-12.889 c -1.1141,-0.9 -2.25,-1.51 -3.3828,-1.876 -3.3192,6.725 -3.7938,14.233 -2.991,20.398 4.5898,-1.075 6.9863,-5.633 6.9863,-5.633"
       style="fill:#db9577;fill-opacity:1;fill-rule:nonzero;stroke:none;stroke-width:0.1"
       id="path1167" /><path
       d="m 83.6125,402.964 c -1.5461,-0.741 -2.8609,-1.509 -3.7805,-2.633 -0.4492,-0.557 -0.8699,-1.157 -1.1437,-1.871 -0.1809,-0.34 -0.261,-0.724 -0.416,-1.099 -0.1305,-0.384 -0.2118,-0.784 -0.3805,-1.199 -0.1348,0.407 -0.2344,0.834 -0.2875,1.269 0.0027,0.431 -0.0555,0.885 0.057,1.321 0.1141,0.892 0.5379,1.759 1.1285,2.466 0.5946,0.711 1.3891,1.234 2.2293,1.531 0.8395,0.294 1.7379,0.405 2.5934,0.215"
       style="fill:#db9577;fill-opacity:1;fill-rule:nonzero;stroke:none;stroke-width:0.1"
       id="path1169" /><path
       d="m 78.9074,400.284 c 0.291,0.387 0.8336,0.524 1.3348,0.412 0.5098,-0.11 0.9433,-0.458 1.1965,-0.85 0.2734,-0.39 0.3945,-0.83 0.4285,-1.256 0.0324,-0.429 -0.0371,-0.859 -0.2492,-1.279 -0.3504,0.331 -0.5657,0.651 -0.7672,0.952 l -0.5406,0.81 c -0.336,0.484 -0.5215,0.848 -1.4028,1.211"
       style="fill:#db9577;fill-opacity:1;fill-rule:nonzero;stroke:none;stroke-width:0.1"
       id="path1171" /><path
       d="m 84.3914,395.709 c -0.6934,-0.356 -1.3476,-0.689 -1.8184,-1.093 -0.4949,-0.425 -0.575,-0.78 -0.491,-1.273 0.1145,-0.547 0.3321,-0.911 0.8543,-1.174 0.5371,-0.241 1.2606,-0.332 2.0375,-0.391 -0.6246,-0.48 -1.4211,-0.758 -2.3203,-0.639 -0.4531,0.057 -0.918,0.304 -1.273,0.662 -0.3672,0.369 -0.5414,0.828 -0.6414,1.286 -0.0993,0.463 -0.0422,1.033 0.2156,1.493 0.2648,0.463 0.6621,0.77 1.0605,0.942 0.7965,0.358 1.6106,0.386 2.3762,0.187"
       style="fill:#db9577;fill-opacity:1;fill-rule:nonzero;stroke:none;stroke-width:0.1"
       id="path1173" /><path
       d="m 137.104,398.317 c 0,-14.757 -9.436,-32.265 -24.193,-32.265 -14.7559,0 -26.1922,17.508 -26.1922,32.265 0,14.756 10.4363,28.713 25.1922,28.713 14.757,0 25.193,-13.957 25.193,-28.713"
       style="fill:#ffb392;fill-opacity:1;fill-rule:nonzero;stroke:none;stroke-width:0.1"
       id="path1175" /><path
       d="m 105.274,397.117 c -0.001,1.584 -0.411,3.026 -1.109,4.107 -0.691,1.074 -1.715,1.821 -2.914,1.823 -1.199,-0.002 -2.2225,-0.749 -2.9139,-1.823 -0.6973,-1.081 -1.107,-2.523 -1.1082,-4.107 h 0.525 l 0.2449,0.465 -2.875,1.514 c -0.2566,0.135 -0.5742,0.037 -0.7093,-0.22 -0.1352,-0.256 -0.0372,-0.574 0.2199,-0.709 l 2.875,-1.515 c 0.1629,-0.086 0.3582,-0.08 0.516,0.015 0.1578,0.095 0.2539,0.266 0.2539,0.45 -0.0012,1.4 0.3715,2.661 0.9398,3.536 0.5747,0.883 1.2999,1.345 2.0319,1.343 0.733,0.002 1.458,-0.46 2.032,-1.343 0.569,-0.875 0.942,-2.136 0.94,-3.536 0,-0.29 0.236,-0.525 0.526,-0.525 0.29,0 0.525,0.235 0.525,0.525"
       style="fill:#594541;fill-opacity:1;fill-rule:nonzero;stroke:none;stroke-width:0.1"
       id="path1177" /><path
       d="m 122.053,397.117 c -0.002,1.4 0.371,2.661 0.94,3.536 0.574,0.883 1.299,1.345 2.032,1.343 0.733,0.002 1.458,-0.46 2.032,-1.343 0.569,-0.875 0.942,-2.136 0.94,-3.536 0,-0.184 0.096,-0.355 0.254,-0.45 0.158,-0.095 0.353,-0.101 0.516,-0.015 l 2.875,1.515 c 0.257,0.135 0.356,0.453 0.22,0.709 -0.135,0.257 -0.453,0.355 -0.709,0.22 l -2.875,-1.514 0.245,-0.465 h 0.525 c -0.001,1.584 -0.411,3.026 -1.109,4.107 -0.691,1.074 -1.715,1.821 -2.914,1.823 -1.199,-0.002 -2.223,-0.749 -2.914,-1.823 -0.698,-1.081 -1.107,-2.523 -1.109,-4.107 0,-0.29 0.235,-0.525 0.525,-0.525 0.291,0 0.526,0.235 0.526,0.525"
       style="fill:#594541;fill-opacity:1;fill-rule:nonzero;stroke:none;stroke-width:0.1"
       id="path1179" /><path
       d="m 113.318,398.499 c 0.321,-1.021 0.652,-2.021 0.999,-3.009 0.352,-0.985 0.74,-1.947 1.168,-2.877 0.433,-0.926 0.926,-1.816 1.533,-2.578 0.598,-0.766 1.314,-1.405 2.158,-1.717 l 0.773,-0.287 -0.447,-0.598 c -0.439,-0.589 -0.898,-0.985 -1.438,-1.346 -0.535,-0.344 -1.103,-0.629 -1.701,-0.811 -0.599,-0.172 -1.206,-0.297 -1.817,-0.31 -0.608,-0.035 -1.212,0.035 -1.797,0.14 0.593,0.086 1.169,0.181 1.725,0.335 0.557,0.143 1.086,0.354 1.589,0.591 0.495,0.257 0.966,0.543 1.38,0.896 0.404,0.338 0.817,0.758 1.05,1.138 l 0.325,-0.885 c -1.187,0.351 -2.114,1.181 -2.804,2.069 -0.691,0.904 -1.205,1.897 -1.574,2.923 -0.384,1.021 -0.667,2.067 -0.847,3.127 -0.186,1.057 -0.296,2.127 -0.275,3.199"
       style="fill:#c28469;fill-opacity:1;fill-rule:nonzero;stroke:none;stroke-width:0.1"
       id="path1181" /><path
       d="m 103.082,380.691 c 1.571,-1.158 3.32,-1.998 5.114,-2.611 1.797,-0.615 3.678,-0.933 5.562,-0.975 1.881,-0.077 3.749,0.239 5.48,0.958 1.7,0.761 3.303,1.887 4.476,3.453 -0.823,-1.786 -2.343,-3.247 -4.122,-4.193 -0.894,-0.475 -1.866,-0.784 -2.851,-1.016 -0.993,-0.187 -2.006,-0.278 -3.008,-0.252 -2,0.065 -4.003,0.455 -5.829,1.262 -1.832,0.774 -3.519,1.909 -4.822,3.374"
       style="fill:#c28469;fill-opacity:1;fill-rule:nonzero;stroke:none;stroke-width:0.1"
       id="path1183" /><path
       d="m 128.526,373.994 c 0.137,3.349 0.093,7.73 -0.469,13.001 0,0 -13.738,4.441 -27.531,-0.967 0,0 -1.5283,-8.288 0.568,-16.033 3.527,-2.458 7.531,-3.943 11.817,-3.943 6.274,0 11.58,3.171 15.615,7.942"
       style="fill:#e7e9ec;fill-opacity:1;fill-rule:nonzero;stroke:none;stroke-width:0.1"
       id="path1185" /><path
       d="m 102.486,384.682 c 0,0 -1.251,-8.084 0.393,-15.809 3.073,-1.774 6.452,-2.821 10.032,-2.821 4.548,0 8.583,1.672 11.998,4.405 0.551,0.634 1.083,1.301 1.588,2.009 0.118,3.4 0.08,7.847 -0.402,13.197 0,0 -11.78,4.508 -23.609,-0.981"
       style="fill:#ffffff;fill-opacity:1;fill-rule:nonzero;stroke:none;stroke-width:0.1"
       id="path1187" /><path
       d="m 102.03,385.098 c -1.913,1.282 -3.707,2.727 -5.4546,4.223 -1.7539,1.491 -3.4121,3.091 -5.0246,4.735 -1.5996,1.657 -3.1235,3.39 -4.5391,5.21 -1.4152,1.819 -2.7215,3.727 -3.8422,5.737 0.7575,-0.873 1.4243,-1.8 2.1989,-2.648 0.7171,-0.889 1.4769,-1.744 2.2343,-2.597 1.5407,-1.686 3.0653,-3.38 4.6668,-5.007 1.5801,-1.647 3.2051,-3.251 4.8243,-4.866 0.8105,-0.807 1.6328,-1.603 2.4636,-2.391 l 2.4726,-2.396"
       style="fill:#e7e9ec;fill-opacity:1;fill-rule:nonzero;stroke:none;stroke-width:0.1"
       id="path1189" /><path
       d="m 89.5016,385.416 c 1.9945,-2.241 3.8961,-4.501 5.8691,-6.706 0.9699,-1.116 1.9766,-2.197 2.977,-3.288 l 3.0573,-3.255 c -2.5593,1.58 -4.789,3.645 -6.7823,5.88 -1.9747,2.254 -3.7723,4.679 -5.1211,7.369"
       style="fill:#e7e9ec;fill-opacity:1;fill-rule:nonzero;stroke:none;stroke-width:0.1"
       id="path1191" /><path
       d="m 126.968,385.098 3.578,4.767 c 1.175,1.595 2.35,3.185 3.481,4.808 2.308,3.216 4.46,6.523 6.683,9.84 -1.525,-3.692 -3.563,-7.159 -5.867,-10.419 -1.159,-1.626 -2.381,-3.207 -3.691,-4.715 -1.298,-1.515 -2.685,-2.959 -4.184,-4.281"
       style="fill:#e7e9ec;fill-opacity:1;fill-rule:nonzero;stroke:none;stroke-width:0.1"
       id="path1193" /><path
       d="m 135.652,387.937 c 0.021,-1.25 -0.257,-2.492 -0.657,-3.676 -0.402,-1.187 -0.952,-2.326 -1.622,-3.389 -0.694,-1.045 -1.449,-2.058 -2.361,-2.919 -0.879,-0.89 -1.886,-1.645 -2.955,-2.274 0.806,0.953 1.633,1.839 2.375,2.796 0.765,0.934 1.447,1.925 2.096,2.931 0.656,1.004 1.215,2.066 1.747,3.147 0.518,1.09 0.989,2.205 1.377,3.384"
       style="fill:#e7e9ec;fill-opacity:1;fill-rule:nonzero;stroke:none;stroke-width:0.1"
       id="path1195" /><path
       d="m 97.9199,404.833 -0.0527,0.085 0.0519,-0.085 h 8e-4 l -0.0527,0.085 0.0519,-0.085 c 0.0422,0.031 1.6762,0.989 3.6719,0.981 1.032,-0.001 2.155,-0.239 3.285,-0.972 0.347,-0.226 0.812,-0.127 1.038,0.22 0.225,0.347 0.127,0.812 -0.22,1.038 -1.394,0.907 -2.837,1.216 -4.103,1.214 -2.539,-0.008 -4.3972,-1.173 -4.4605,-1.205 -0.3524,-0.218 -0.4614,-0.681 -0.2434,-1.033 0.2184,-0.352 0.6805,-0.461 1.0328,-0.243"
       style="fill:#c76151;fill-opacity:1;fill-rule:nonzero;stroke:none;stroke-width:0.1"
       id="path1197" /><path
       d="m 120.933,404.833 -0.053,0.085 0.052,-0.085 h 0.001 l -0.053,0.085 0.052,-0.085 c 0.042,0.031 1.676,0.989 3.671,0.981 1.032,-0.001 2.155,-0.239 3.285,-0.972 0.348,-0.226 0.812,-0.127 1.038,0.22 0.226,0.347 0.127,0.812 -0.22,1.038 -1.394,0.907 -2.836,1.216 -4.103,1.214 -2.538,-0.008 -4.397,-1.173 -4.46,-1.205 -0.352,-0.218 -0.461,-0.681 -0.243,-1.033 0.218,-0.352 0.68,-0.461 1.033,-0.243"
       style="fill:#c76151;fill-opacity:1;fill-rule:nonzero;stroke:none;stroke-width:0.1"
       id="path1199" /><path
       d="m 140.356,411.896 c 0.269,0.404 0.512,0.834 0.715,1.295 1.423,3.228 0.682,6.832 -1.584,9.098 1.397,4.333 -0.534,9.038 -4.61,10.835 -1.552,0.683 -3.203,0.846 -4.78,0.576 -0.485,2.772 -2.236,5.221 -4.923,6.405 -2.848,1.256 -6.033,0.773 -8.467,-0.975 -0.869,1.46 -2.166,2.663 -3.814,3.389 -4.221,1.861 -9.187,-0.085 -11.334,-4.341 -0.573,0.471 -1.21,0.879 -1.9192,1.192 -4.3675,1.926 -9.5414,-0.217 -11.5558,-4.786 -0.6399,-1.452 -0.8809,-2.974 -0.7754,-4.438 -3.0109,-0.075 -5.9035,-1.924 -7.2465,-4.971 -1.1879,-2.693 -0.8633,-5.649 0.593,-7.87 -0.5813,-0.65 -1.0778,-1.398 -1.4508,-2.243 -1.8258,-4.142 -0.0957,-8.915 3.8637,-10.66 l 0.2472,-0.094 c -0.2961,-1.178 -0.4644,-2.526 -0.4644,-3.958 0,-4.598 1.732,-8.326 3.868,-8.326 2.1363,0 3.8683,3.728 3.8683,8.326 0,0.555 -0.0266,1.097 -0.075,1.622 2.327,1.172 4.6305,3.717 6.1184,7.092 0.3652,0.828 0.6519,1.657 0.88,2.477 1.1024,-0.407 2.3137,-0.632 3.5855,-0.632 1.883,0 3.632,0.496 5.092,1.341 2.018,-1.65 4.847,-2.681 7.987,-2.681 2.887,0 5.507,0.875 7.48,2.297 1.134,-0.609 2.43,-0.957 3.808,-0.957 0.743,0 1.46,0.109 2.144,0.298 l 0.116,-0.141 c 0.179,-0.524 0.377,-1.05 0.609,-1.577 1.611,-3.655 4.087,-6.378 6.466,-7.455 -0.043,-0.544 -0.066,-1.107 -0.066,-1.684 0,-4.598 1.436,-8.326 3.208,-8.326 1.771,0 3.208,3.728 3.208,8.326 0,1.625 -0.183,3.136 -0.493,4.418 0.563,1.898 0.476,4.439 -0.299,7.128"
       style="fill:#c76151;fill-opacity:1;fill-rule:nonzero;stroke:none;stroke-width:0.1"
       id="path1201" /><path
       d="M 121.842,92.384 119.53,72.8969 c -0.118,-0.9981 0.586,-1.8199 1.581,-1.8469 l 41.943,-1.2328 c 1.65,0 2.429,2.2168 1.038,2.9668 -5.353,2.889 -17.576,7.25 -24.23,10.8769 l -1.452,8.7231 h -16.568"
       style="fill:#3d5963;fill-opacity:1;fill-rule:nonzero;stroke:none;stroke-width:0.1"
       id="path1203" /><path
       d="m 112.391,234.577 8.165,-144.6239 h 20.916 l 0.523,144.6239 h -29.604"
       style="fill:#5f8c9c;fill-opacity:1;fill-rule:nonzero;stroke:none;stroke-width:0.1"
       id="path1205" /><path
       d="m 116,170.657 -3.609,63.92 H 125.53 L 116,170.657"
       style="fill:#5a8594;fill-opacity:1;fill-rule:nonzero;stroke:none;stroke-width:0.1"
       id="path1207" /><path
       d="M 84.3379,92.384 82.0254,72.8969 C 81.907,71.8988 82.6121,71.077 83.6066,71.05 l 41.9424,-1.2328 c 1.65,0 2.429,2.2168 1.038,2.9668 -5.352,2.889 -17.576,7.25 -24.229,10.8769 l -1.453,8.7231 H 84.3379"
       style="fill:#3d5963;fill-opacity:1;fill-rule:nonzero;stroke:none;stroke-width:0.1"
       id="path1209" /><path
       d="M 80.8867,234.577 83.052,89.9531 h 20.915 l 15.524,145.6239 -38.6043,-1"
       style="fill:#6fa2b5;fill-opacity:1;fill-rule:nonzero;stroke:none;stroke-width:0.1"
       id="path1211" /><path
       d="m 181.754,366.951 4.115,25.765 -14.566,2.326 -4.115,-25.765 14.566,-2.326"
       style="fill:#ffb392;fill-opacity:1;fill-rule:nonzero;stroke:none;stroke-width:0.1"
       id="path1213" /><path
       d="m 122.055,326.401 51.531,-2.298 c 5.005,0.223 9.115,4.034 9.712,9.009 l 6.112,53.795 -23.869,0.385 -4.68,-36.304 -35.55,2.628 -3.256,-27.215"
       style="fill:#6fa2b5;fill-opacity:1;fill-rule:nonzero;stroke:none;stroke-width:0.1"
       id="path1215" /><path
       d="m 162.593,409.2 v 0 c 1.175,1 3.148,0.405 4.386,-1.32 l 6.791,-9.467 c 1.237,-1.726 1.29,-3.955 0.115,-4.954 -1.174,-1 -3.148,-0.405 -4.385,1.32 l -6.791,9.467 c -1.238,1.726 -1.29,3.955 -0.116,4.954"
       style="fill:#ffb392;fill-opacity:1;fill-rule:nonzero;stroke:none;stroke-width:0.1"
       id="path1217" /><path
       d="m 194.382,419.26 v 0 c 1.163,-0.386 1.728,-1.937 1.253,-3.447 l -6.729,-19.101 c -0.474,-1.51 -1.814,-2.429 -2.978,-2.043 -1.164,0.386 -1.728,1.937 -1.254,3.447 l 6.729,19.101 c 0.474,1.51 1.814,2.429 2.979,2.043"
       style="fill:#ffb392;fill-opacity:1;fill-rule:nonzero;stroke:none;stroke-width:0.1"
       id="path1219" /><path
       d="m 188.91,425.226 v 0 c 1.176,-0.271 1.867,-1.759 1.535,-3.306 l -4.907,-19.648 c -0.331,-1.548 -1.564,-2.591 -2.74,-2.32 -1.175,0.271 -1.866,1.76 -1.535,3.307 l 4.908,19.648 c 0.331,1.547 1.564,2.591 2.739,2.319"
       style="fill:#ffb392;fill-opacity:1;fill-rule:nonzero;stroke:none;stroke-width:0.1"
       id="path1221" /><path
       d="m 181.687,426.868 v 0 c 1.174,-0.159 1.983,-1.574 1.797,-3.145 l -3.05,-20.021 c -0.186,-1.57 -1.299,-2.727 -2.473,-2.568 -1.174,0.158 -1.982,1.573 -1.796,3.144 l 3.05,20.02 c 0.186,1.572 1.298,2.728 2.472,2.57"
       style="fill:#ffb392;fill-opacity:1;fill-rule:nonzero;stroke:none;stroke-width:0.1"
       id="path1223" /><path
       d="m 173.855,425.882 v 0 c 1.144,-0.027 2.071,-1.343 2.06,-2.925 l -0.791,-20.235 c -0.011,-1.583 -0.956,-2.855 -2.1,-2.829 -1.144,0.027 -2.071,1.343 -2.06,2.925 l 0.791,20.236 c 0.011,1.582 0.956,2.855 2.1,2.828"
       style="fill:#ffb392;fill-opacity:1;fill-rule:nonzero;stroke:none;stroke-width:0.1"
       id="path1225" /><path
       d="m 176.672,389.399 2.392,-0.344 c 5.132,-0.735 9.911,3.215 10.62,8.78 0.71,5.565 -2.908,10.72 -8.04,11.456 l -2.392,0.343 c -5.132,0.736 -9.911,-3.215 -10.621,-8.78 -0.709,-5.564 2.909,-10.72 8.041,-11.455"
       style="fill:#ffb392;fill-opacity:1;fill-rule:nonzero;stroke:none;stroke-width:0.1"
       id="path1227" /><path
       d="m 77.8863,231.218 h 66.4027 c 0,0 -1.27,26.421 -5.456,37.285 -2.075,5.381 -4.778,17.215 -4.22,26.443 0.322,5.311 1.692,9.798 2.92,14.266 1.607,5.845 1.737,11.998 0.42,17.915 l -5.786,26.007 -0.937,0.281 -38.7136,0.187 -2.2316,-0.468 -6.6723,-29.986 c 0,0 -1.3414,-13.563 4.1016,-27.886 5.4422,-14.322 -10.984,-28.437 -9.8278,-64.044"
       style="fill:#7cb6cb;fill-opacity:1;fill-rule:nonzero;stroke:none;stroke-width:0.1"
       id="path1229" /><path
       d="m 131.23,353.415 c -12.612,3.843 -26.069,3.907 -38.7136,0.187 4.1973,-7.661 11.3096,-12.717 19.4056,-12.717 8.03,0 15.097,4.973 19.308,12.53"
       style="fill:#6fa2b5;fill-opacity:1;fill-rule:nonzero;stroke:none;stroke-width:0.1"
       id="path1231" /><path
       d="m 128.297,354.236 c -10.771,2.758 -22.053,2.813 -32.8474,0.158 3.0383,-6.017 9.2604,-10.154 16.4614,-10.154 7.14,0 13.319,4.063 16.386,9.996"
       style="fill:#ffb392;fill-opacity:1;fill-rule:nonzero;stroke:none;stroke-width:0.1"
       id="path1233" /><path
       d="m 47.7723,212.799 v 39.913 c 0,1.49 1.2078,2.698 2.698,2.698 h 59.6777 c 1.49,0 2.698,-1.208 2.698,-2.698 v -39.913 c 0,-1.49 -1.208,-2.698 -2.698,-2.698 H 50.4703 c -1.4902,0 -2.698,1.208 -2.698,2.698"
       style="fill:#3d5963;fill-opacity:1;fill-rule:nonzero;stroke:none;stroke-width:0.1"
       id="path1235" /><path
       d="m 59.3176,256.286 8.182,-30.993 10.9606,4.438 -3.6,23.344 -15.5426,3.211"
       style="fill:#ffb392;fill-opacity:1;fill-rule:nonzero;stroke:none;stroke-width:0.1"
       id="path1237" /><path
       d="m 90.2848,353.134 c -13.6168,-0.486 -20.7918,-12.249 -26.92,-28.08 -3.5054,-9.056 -10.3285,-35.214 -12.7226,-42.34 -0.3457,-1.03 -0.3621,-2.141 -0.0484,-3.181 l 10.0871,-47.949 18.7789,8.149 -5.0422,41.312 10.4625,32.809 5.4047,39.28"
       style="fill:#6fa2b5;fill-opacity:1;fill-rule:nonzero;stroke:none;stroke-width:0.1"
       id="path1239" /><path
       d="m 93.0094,217.031 v 0 c -1.0059,-1.44 -3.193,-1.49 -4.8594,-0.113 l -9.1434,7.553 c -1.6668,1.377 -2.2078,3.682 -1.2011,5.12 1.0058,1.44 3.1922,1.491 4.8593,0.114 l 9.1434,-7.554 c 1.6664,-1.377 2.207,-3.682 1.2012,-5.12"
       style="fill:#ffb392;fill-opacity:1;fill-rule:nonzero;stroke:none;stroke-width:0.1"
       id="path1241" /><path
       d="m 67.3621,204.358 v 0 c -1.3883,-0.165 -2.7121,1.096 -2.9418,2.801 l -1.7254,12.823 c -0.2293,1.705 0.7188,3.234 2.1074,3.399 1.3883,0.165 2.7122,-1.096 2.9411,-2.801 l 1.7254,-12.823 c 0.2296,-1.706 -0.7188,-3.235 -2.1067,-3.399"
       style="fill:#ffb392;fill-opacity:1;fill-rule:nonzero;stroke:none;stroke-width:0.1"
       id="path1243" /><path
       d="m 73.0836,203.608 v 0 c -1.2777,-0.15 -2.5098,1.122 -2.7383,2.827 l -1.7187,12.824 c -0.2286,1.706 0.63,3.223 1.9074,3.374 1.2777,0.15 2.5098,-1.123 2.7383,-2.828 l 1.7187,-12.823 c 0.2285,-1.705 -0.6301,-3.224 -1.9074,-3.374"
       style="fill:#ffb392;fill-opacity:1;fill-rule:nonzero;stroke:none;stroke-width:0.1"
       id="path1245" /><path
       d="m 79.0598,203.322 v 0 c -1.3317,-0.157 -2.6078,1.109 -2.8371,2.814 l -1.7219,12.824 c -0.2293,1.705 0.673,3.228 2.0043,3.385 1.3316,0.158 2.6082,-1.109 2.8375,-2.814 l 1.7215,-12.823 c 0.2289,-1.705 -0.6727,-3.229 -2.0043,-3.386"
       style="fill:#ffb392;fill-opacity:1;fill-rule:nonzero;stroke:none;stroke-width:0.1"
       id="path1247" /><path
       d="m 84.6012,204.986 v 0 c -1.2969,-0.152 -2.5449,1.117 -2.7739,2.822 l -1.7199,12.825 c -0.2285,1.705 0.6453,3.224 1.9422,3.377 1.2969,0.153 2.5449,-1.117 2.7738,-2.822 l 1.7196,-12.824 c 0.2285,-1.705 -0.645,-3.226 -1.9418,-3.378"
       style="fill:#ffb392;fill-opacity:1;fill-rule:nonzero;stroke:none;stroke-width:0.1"
       id="path1249" /><path
       d="m 73.8965,233.205 -2.6094,-0.312 c -5.5969,-0.67 -9.5062,-6.162 -8.6875,-12.207 0.8192,-6.044 6.0684,-10.442 11.6652,-9.772 l 2.6094,0.311 c 5.5973,0.669 9.5063,6.162 8.6875,12.207 -0.8187,6.044 -6.0683,10.443 -11.6652,9.773"
       style="fill:#ffb392;fill-opacity:1;fill-rule:nonzero;stroke:none;stroke-width:0.1"
       id="path1251" /></g></svg>

       
